<?xml version="1.0" encoding="UTF-8" standalone="no"?>
<!-- Created with Inkscape (http://www.inkscape.org/) -->

<svg
   xmlns:dc="http://purl.org/dc/elements/1.1/"
   xmlns:cc="http://creativecommons.org/ns#"
   xmlns:rdf="http://www.w3.org/1999/02/22-rdf-syntax-ns#"
   xmlns:svg="http://www.w3.org/2000/svg"
   xmlns="http://www.w3.org/2000/svg"
   xmlns:sodipodi="http://sodipodi.sourceforge.net/DTD/sodipodi-0.dtd"
   xmlns:inkscape="http://www.inkscape.org/namespaces/inkscape"
   width="557.9126"
   height="887.59998"
   id="svg3477"
   sodipodi:version="0.32"
   inkscape:version="0.48.4 r9939"
   sodipodi:docname="alabama.svg"
   inkscape:output_extension="org.inkscape.output.svg.inkscape"
   version="1.0">
  <defs
     id="defs3479">
    <inkscape:perspective
       sodipodi:type="inkscape:persp3d"
       inkscape:vp_x="0 : 526.18109 : 1"
       inkscape:vp_y="0 : 1000 : 0"
       inkscape:vp_z="744.09448 : 526.18109 : 1"
       inkscape:persp3d-origin="372.04724 : 350.78739 : 1"
       id="perspective3485" />
    <inkscape:perspective
       id="perspective2927"
       inkscape:persp3d-origin="0.5 : 0.33333333 : 1"
       inkscape:vp_z="1 : 0.5 : 1"
       inkscape:vp_y="0 : 1000 : 0"
       inkscape:vp_x="0 : 0.5 : 1"
       sodipodi:type="inkscape:persp3d" />
    <inkscape:perspective
       id="perspective2940"
       inkscape:persp3d-origin="0.5 : 0.33333333 : 1"
       inkscape:vp_z="1 : 0.5 : 1"
       inkscape:vp_y="0 : 1000 : 0"
       inkscape:vp_x="0 : 0.5 : 1"
       sodipodi:type="inkscape:persp3d" />
    <inkscape:perspective
       id="perspective2854"
       inkscape:persp3d-origin="0.5 : 0.33333333 : 1"
       inkscape:vp_z="1 : 0.5 : 1"
       inkscape:vp_y="0 : 1000 : 0"
       inkscape:vp_x="0 : 0.5 : 1"
       sodipodi:type="inkscape:persp3d" />
    <inkscape:perspective
       id="perspective2826"
       inkscape:persp3d-origin="0.5 : 0.33333333 : 1"
       inkscape:vp_z="1 : 0.5 : 1"
       inkscape:vp_y="0 : 1000 : 0"
       inkscape:vp_x="0 : 0.5 : 1"
       sodipodi:type="inkscape:persp3d" />
  </defs>
  <sodipodi:namedview
     id="base"
     pagecolor="#ffffff"
     bordercolor="#666666"
     borderopacity="1.0"
     gridtolerance="10000"
     guidetolerance="10"
     objecttolerance="10"
     inkscape:pageopacity="0.0"
     inkscape:pageshadow="2"
     inkscape:zoom="0.17500001"
     inkscape:cx="-804.31963"
     inkscape:cy="-492.76415"
     inkscape:document-units="px"
     inkscape:current-layer="layer1"
     showgrid="false"
     inkscape:window-width="1442"
     inkscape:window-height="990"
     inkscape:window-x="-11"
     inkscape:window-y="-11"
     inkscape:window-maximized="1" />
  <metadata
     id="metadata3482">
    <rdf:RDF>
      <cc:Work
         rdf:about="">
        <dc:format>image/svg+xml</dc:format>
        <dc:type
           rdf:resource="http://purl.org/dc/dcmitype/StillImage" />
      </cc:Work>
    </rdf:RDF>
  </metadata>
  <g
     inkscape:label="Layer 1"
     inkscape:groupmode="layer"
     id="layer1"
     transform="translate(-5708.9315,-4649.8188)">
    <path
       style="opacity:0.98999999000000005;fill:#ffffff;fill-opacity:1;fill-rule:nonzero;stroke:#000000;stroke-width:2.59999989999999980;stroke-miterlimit:4;stroke-opacity:1;stroke-dasharray:none"
       d="m 5650.9688,4555.2812 0.2187,0.4688 0.2187,1.4375 0,0.2187 0.2188,0.8126 1.6562,3.1562 1.0626,1.2812 0.6562,1.0626 0.4062,1.25 1.6876,4.2187 0.8437,1.9375 1.2813,1.6562 1.0312,0.8126 0.4062,0.4687 1.7188,0.8125 3.75,1.7188 0.2188,0.375 -1.2813,12.4687 -0.375,2.3125 -0.4375,4.2188 -0.625,4.4062 -0.4375,3.5938 -0.375,4 -1.9375,13.6562 0,0.2188 -0.625,4.875 -0.8125,6.3124 0,0.2188 -0.2187,1.0625 -1.5,12.4375 -0.625,4.5938 -0.6563,4.875 0,0.4374 -0.2187,0.375 -0.1563,2.9376 -0.2187,2.5624 -0.2188,1.875 -0.8438,6.75 0,0.4376 -1.2812,10.9374 -0.4375,3.5938 -0.1563,1.4375 -0.875,6.5313 -0.8437,6.9687 -0.2187,1.9063 0,1.0312 -0.375,2.7812 -0.4688,2.7188 -0.4375,3.125 0,1.0625 -0.8125,6.75 -0.4062,3.8125 -0.6563,5.0312 -0.2187,1.9063 -0.625,5.3125 -1.0313,8.8438 -1.7187,12.8437 0,0.2187 -0.375,3.5313 -1.0626,7.5625 -0.2187,0.6875 -0.625,5.6875 0,1.0625 -0.2187,1.0313 -0.2188,0.4062 -0.2188,1.25 -0.2187,2.7812 -0.1563,1.6563 0,0.8437 -0.4374,2.9688 -0.6876,5.875 -0.375,3.8125 0,0.5937 -0.4374,2.3438 0,0.2188 -0.625,5.4687 -0.2188,1.6563 -0.2188,2.1562 -0.2187,2.5 -0.375,3 -0.2187,1.4375 0,0.4375 -0.2188,1.2812 -0.25,1.4376 0,0.875 0,0.375 -0.375,1.875 -0.4375,4.875 -0.4063,3.1562 -0.2187,0.8438 -0.2187,2.0937 -1.875,16.6563 -0.2188,2.0937 -0.4375,3 -0.4063,4.4063 -0.2187,1.9062 -0.6563,4.1875 0,1.0625 -1.4374,11.5625 -0.4376,5.3125 -0.2187,1.4375 -0.625,3.375 -0.2187,3.1563 0,0.4374 -2.5313,20.4063 -1.6563,15.1563 -0.8437,6.75 0,0.2187 -1.7187,14.5625 -2.4688,23.1875 0,0.1563 -0.2188,1.0937 -0.6874,5.6563 -0.375,2.3124 -1.5,13.2813 -0.5938,5.0937 -2.3438,21.0313 -0.2187,0.4375 -0.6563,6.0938 0,0.2187 -1.2187,10.7187 -0.2187,1.9376 -0.2188,0.625 0,0.5937 -0.2188,1.5 -1.2812,10.5 -0.375,4.0625 -0.8438,6.5312 0,0.2188 -0.875,6.0625 -0.2187,1.5 -0.625,4.8125 -0.2187,1.9375 -0.5938,4.5937 -1.7188,14.7813 -0.625,4.8125 0,0.2188 -2.5312,19.5937 0,0.6563 -0.8438,6.75 0,3.375 0.2188,4.4062 0,5.875 0.25,5.25 0,1.0625 0,0.6563 0.1562,10.9687 0,4.625 0.6563,13.6875 0,0.4375 0.2187,5.875 0,1.4687 0.1563,9.4688 0.25,4.6562 0,0.8126 0,3.375 0,4.2187 0.2187,1.9375 0,2.3125 0.2188,2.7187 0,0.2188 0.2188,9.25 0,2.5312 0,0.2188 0.5937,17.7188 0,1.25 0,1.0624 0,2.9376 0,0.2187 0.6563,21.25 0.1874,8.25 0.4376,12.5937 0,0.2188 0.4374,23.1875 0.1563,1.5 0,0.5937 0.4687,14.3438 0.2188,9.9062 0,0.2188 0,3.375 0,1.2188 0.2188,6.75 0,5.9062 0.1562,1.0625 -0.1562,1.6563 0.1562,5.9374 0.2188,8.4063 0,0.2187 0,1.875 0.2187,4.25 0,1.0626 0,2.3124 0,3.3126 0,0.25 0.625,18.9687 3.1875,-2.9375 1.6875,-0.2188 3.5937,-0.2187 1.4376,0.2187 2.1562,1.4376 0.375,1.9374 0.6562,0.2188 3.1563,-0.2188 0.1875,0 0.2188,-0.4374 0.2187,-0.2188 0.8125,-1.6875 1.0625,0 0.875,0 1.6563,0.25 3.1562,1.25 0,0.1875 1.7188,0.6562 1.2187,0.375 0.4375,0.4376 2.3438,0.8437 0.5937,0 0.6563,0.8437 1.2812,1.9063 0,0.4063 -1.2812,0.2187 -0.4376,1.0625 0.4376,3.125 0.625,0.9062 3.1562,-1.5 2.5312,-0.4374 3.1563,1.2812 1.2813,-3.1562 0.5937,-0.625 1.5,-2.75 1.2813,-3.7813 0.5937,-9.2813 -0.1563,-4.4374 0,-0.2188 0.8126,-1.4375 0.625,-1.9375 -0.8438,-3.9688 -0.2188,-1.5 0.6876,-1.6562 1.4374,-2.5625 0.2188,0 1.0312,-0.8125 0.4376,-3.1562 -0.6563,-2.7813 0,-0.375 0.2187,-0.4375 0,-0.2188 1.5,-2.3437 1.6563,-1.6563 1.2813,-3.5937 0.4374,-0.8125 -0.875,-1.2812 -0.1874,-2.0938 0,-2.5625 1.4374,-0.8125 1.2813,-0.625 1.5,-0.2188 1.2813,-1.5 0.8124,-2.0937 0,-0.2187 1.5,-1.4376 0.375,-0.2187 0.25,-0.2187 0.4376,0.2187 0.375,0.2187 2.0937,0.8126 1.2813,0.625 1.2812,1.0624 2.0938,1.4688 0.625,0.4688 2.9687,0.375 1.0625,0.8124 1.6562,3 0,0.2188 0.4376,1.0625 0.2187,0.5937 0.4063,2.125 -0.4063,5.0626 0,0.1874 0,0.2188 0.4063,1.0312 0,0.6876 0.2187,0 0.2187,0.1562 0.2188,0.4375 0,0.2187 0.2188,0.4063 0.375,0.6563 0,0.375 0,0.4374 0.2187,0.4688 0,0.375 0,0.2188 0,0.2187 0,0.2187 0,0.4063 0,0.4375 -0.2187,1.0312 -0.2188,0.625 0,0.4376 -0.5938,1.0624 0,0.4376 -0.4374,0.5937 -0.25,0.6875 -1.0313,2.0938 -0.1563,0.1562 0,0.2188 -0.25,0.2187 -0.6562,1.2813 -1.2188,2.3124 0,0.2188 0,0.1875 0.1876,0.875 1.0312,0.8437 0.2188,0.2188 0.6874,0.8125 0.1563,1.9063 0.6563,2.75 0.625,4.5937 0.2187,1.2813 0.2187,0.875 6.5313,4.8124 1.875,1.0626 1.2813,0.2187 0.2187,0.2187 1.0313,1.2813 0.8437,2.25 0.2187,0.4375 3.375,4 1.875,1.7188 3.8126,2.3124 2.7187,3.75 0,0.4688 0,1.0312 0,1.0626 -1.6563,2.3124 0,0.2188 -0.2187,0.2188 -2.7813,1.2187 -0.5937,0.2187 -2.3437,0.2188 -2.5313,-0.2188 -1.0625,0.4688 -5.625,1.875 -3,0.4375 -2.3125,-0.2187 -1.0625,-0.4376 -2.0938,-1.2812 -0.625,-1.0625 -2.9062,-1.4375 -1.9375,0.8438 -2.9375,3.75 -9.0938,0.9062 -0.8124,1.4375 0,0.2187 2.3124,-0.2187 2.3438,-0.4063 5.8438,-0.6562 5.7187,-0.1562 0.2187,0 0.2188,0 3.9688,0.1562 9.4687,0.6562 6.1563,-0.4374 10.2812,-1.875 7.4062,-0.8438 3.375,-0.4375 1.6563,-0.2187 3.1563,-0.8438 0.2187,-0.2188 8.625,-2.3124 0,-0.2188 3.8125,-0.8438 2.125,-0.2187 0.2188,0 1.4374,-0.375 2.5313,-0.4375 0,-0.4062 0,-0.2188 2.125,-0.6562 0.8125,0 7.5938,-2.3126 0.2187,-1.9062 -0.8437,0 -0.6563,0.4688 -0.375,0 -0.2187,0 -0.25,0.2187 -0.5938,-0.2187 -1.0625,0 -0.2187,0.2187 -0.8126,0.1563 -0.2187,0.2187 -1.2813,0 -0.4374,0 -1.0626,-0.375 -0.1562,0 -0.2188,-0.2187 -0.2187,-0.2188 0,-0.4688 0,-0.1562 0,-0.4375 -0.2187,-0.8437 0.2187,-0.8126 0.4375,-0.6562 0.375,-0.25 1.2812,-0.375 0.4376,0 2.0937,0 0.2187,0 1.4376,-0.4375 0.4687,0 0.375,-0.4375 1.2813,-1.4375 0.2187,-0.4375 -0.2187,-2.5625 0,-0.1563 0,-0.4374 0,-0.4376 0.2187,-0.1874 0.4375,-0.6563 1.0625,-1.0625 0.5937,-0.8125 0,-0.2187 -0.2187,0 -0.1563,-0.8438 0,-0.2188 0,-0.2187 0,-0.625 0.5938,-0.6563 0.4375,-0.375 0.4063,-1.0624 0,-0.2188 0.2187,0 0,-0.2188 0.2187,-0.2187 0.375,-0.375 0.2188,0 0.2188,-0.25 0.2187,0 0.4687,0 1.0313,0.25 0.625,0 0.8125,-0.25 0.2188,-0.2187 0.625,-0.5938 0.4374,-0.4375 1.5,-0.625 0.5938,-0.4375 1.9062,-1.2812 0.4376,-0.5938 0.2187,-0.6562 0,-0.625 -0.2187,-0.8126 -0.4376,-0.4374 -1.6874,-0.4688 -1.6876,-0.375 -0.8437,0.2188 -0.375,0 -0.6875,-0.4376 -0.5938,-0.625 -1.0624,-0.2187 -1.7188,-1.4687 -0.5938,-1.0626 -0.2187,-1.0624 0,-0.2188 -0.625,-0.2188 0,-0.1562 0,-0.4375 0.4063,-0.4687 0.2187,-1.2188 0,-0.875 -1.0625,-1.6562 -0.2188,-0.2188 -0.5937,0 -0.25,-0.2188 -0.4375,-0.625 0,-0.2187 0,-0.2187 0.2188,0 0.2187,-0.2188 0,-0.1562 -0.2187,-0.875 0,-1.2188 1.7187,-4.0625 0,-0.2187 0.625,0 0.5937,-0.8126 0.2188,-1.0624 0.4375,-0.2188 0.25,0 0,0.2188 0.2187,0 0.375,-0.2188 0.2188,-0.8438 0,-0.4374 -0.2188,-0.1563 0,-0.2187 0.4376,-0.4376 0.2187,-0.2187 0.1875,0.2187 0,-0.2187 0.2188,-0.4063 0.4374,-1.25 0.375,-3.1562 0.4376,-0.6875 0.4687,-0.1563 0.375,-0.2187 0.2187,-0.4375 0.4376,-1.2812 0,-0.1563 -0.2188,0 0,-0.2187 0,-1.0626 0.2188,-0.4374 0.1874,-0.2188 0,-0.8438 -0.4062,-2.3124 -0.2188,-0.8438 0.2188,-0.4375 -0.2188,-0.5937 -0.4374,-0.6876 -0.8438,-1.6562 -0.2188,-1.0312 0.2188,-0.2188 -0.2188,-0.2188 -0.8124,-0.625 -1.0626,-0.4374 -0.8437,-0.625 -0.8125,-0.8126 -0.875,0 -0.625,-0.4374 -0.4375,-0.4376 -0.1563,-0.4062 -0.9062,-0.8125 -0.375,0 -0.8438,0.375 -1.4687,-0.5937 -0.2187,-0.25 -0.4688,-0.5938 -0.5938,-0.2188 -0.8437,-1.2812 0,-0.4375 -0.2187,-0.2187 -0.8126,-0.375 -1.7187,-0.4688 0,0.2188 -0.8437,-0.4376 -0.4376,-0.8124 -0.8124,-1.2813 -0.25,0 -1.875,-0.8437 -1.25,-1.0313 -0.4063,-0.8437 0,-0.4376 0,-0.8124 -0.2187,-1.2813 0,-0.2187 -0.8438,-0.8438 -0.6562,-0.8125 0,-0.4687 0.2187,-0.8126 -1.0313,-1.5 -0.2187,0 -0.4063,0 -0.6562,-0.5937 0,-0.4687 -0.625,-0.5938 -0.6562,-0.5938 -0.5938,-0.25 -0.8438,-1.4687 -0.875,-0.8437 -0.8437,-0.4376 -1.0313,-0.375 -0.8437,-0.6874 -0.2187,-0.8126 -0.4376,-0.625 -0.1562,-0.4374 -0.9062,-0.4376 -0.8126,-0.2187 0.2188,-0.4063 -0.4375,-0.6562 -1.0625,-1.0312 -0.1562,-0.1876 -0.2188,0 0,-0.2187 0,-0.2187 0,-0.5938 0.2188,-0.4688 0,-0.4374 -0.4376,-0.5938 -1.0624,-1.0625 0.8124,-2.0937 0.25,-0.4376 0.5938,-0.8437 0.4375,-0.2187 0.2187,-0.375 0,-0.4376 -0.2187,-0.6874 0,-0.5938 0.2187,-0.4375 0.8438,-0.4063 0.2188,-0.4374 0,-0.8126 0.375,-1.0624 0.2187,-0.4376 0.4687,-1.0624 0,-0.375 0.8126,-1.7188 0.2187,-0.625 0.4375,-0.2188 0.1875,-0.4374 0.875,-1.875 0.375,-2.5626 -0.2187,-0.8124 -0.375,-0.625 0,-0.6563 0,-0.1563 0.2187,-0.6562 -0.2187,-0.4375 -0.4376,-0.8437 -0.4062,-1.4376 0,-0.4374 4.375,0 3.5938,0 4.6562,0.2187 0.2188,0 0.2187,0 1.875,0 0.8437,0 2.9376,-0.2187 0.2187,0 0.2187,0 1.6563,0.2187 0.875,0 0.4063,-0.2187 0.4374,0 1.0313,0.2187 2.7187,0 0.9063,0 9.2187,0 0.4376,0 1.5,0 3.3124,0 3.375,0 1.2813,0 0.4375,0 1.6562,0 0.2188,0 2.125,0 1.7188,0.2187 0.8124,0 0.4063,0 0.2187,0 0.2188,0 2.0938,0.1563 0.4374,0 0.2188,0 0.4062,0 1.4688,0 6.5312,-0.1563 1.5,0 1.6563,-0.2187 0.2187,0 3.375,0 2.5,0.2187 0.875,-0.2187 7.9688,0 0.6875,0 1.6563,0.2187 2.0937,-0.2187 0.6563,0 1.4374,0.2187 3.5938,0 0.8438,0 2.5312,0 8.625,0.1563 6.1562,0 2.5,0 6.3438,0.2187 0.1875,0 3.375,0 3.8125,0 6.3125,0.2188 2.5313,-0.2188 0.2187,0 0.375,0 2.9375,0.4376 2.7812,0 1.6563,0 2.0937,0 5.9376,0 9.2812,0 0.8438,-0.2188 3.125,0.2188 3.625,0.25 1.0312,0 2.0938,0 6.5312,-0.25 0.4062,0.25 0.2188,0 7.7812,-0.25 1.9063,0 0.6563,0 2.0937,0 0.8437,0 0.8126,0 2.5624,0 2.3126,0 4.6562,0 2.3125,0 2.7187,0 0.2188,0 2.0938,0 2.9374,-0.2188 8.0313,0.2188 1.0313,0 0.8437,0 1.0625,0 0.875,0 7.3438,0 9.4687,0 0.6563,0 2.7187,0 5.7187,0 0.2188,0 4.8125,-0.2188 4.0313,0 0.8124,0 6.5313,0 9.9063,-0.2188 8.0312,-0.2187 4.5938,-0.1563 1.2812,0 8.2188,-0.2187 7.1562,0 6.9688,-0.2187 2.7187,0 13.25,-0.2188 1.5,-0.2188 1.6563,0 10.9687,-0.4062 9.2813,-0.2188 3.1562,0 4.2188,-0.2187 9.2812,-0.375 0.4062,0 0.2188,0 9.9062,0 3.375,-0.2187 0.4376,0 1.0312,0 13.6875,-0.25 0.4375,0 0.5938,0 3.1562,0 0.2188,0 0.4374,0 0.4063,0 3.5937,0 0,-0.8126 0.2188,-0.875 0.2188,-0.8437 -0.2188,-0.2187 -0.6562,-0.625 -0.1876,-1.0313 -0.6562,-1.5 0,-1.875 0,-0.2187 0,-0.2188 0,-0.1875 -0.375,-1.25 -0.2188,-0.4687 -0.8437,-0.5938 -1.7187,-2.75 0,-0.25 0,-0.1562 0,-0.2188 0.4374,-1.2812 -0.6562,-2.3126 -0.5938,-0.625 -0.4374,-1.4687 -0.2188,-0.2187 -0.625,-0.4063 -0.8438,-0.875 -0.6562,-0.4063 -0.375,-0.2187 -0.2188,-0.2187 -0.2187,-0.2188 0,-0.2188 -0.8437,-1.875 -0.2188,-1.0624 -0.4375,-0.5938 -0.8437,-1.0625 -0.375,-0.4375 -0.4376,-0.5938 -0.2187,-0.4687 -0.2187,-0.2187 -0.625,-0.2188 -0.2188,0 -1.4375,-0.1562 -1.2813,-0.875 0,-0.1876 0.1876,-2.0937 0,-0.4375 -0.4063,-0.8438 -0.4375,-0.2187 -0.2188,0 -0.1562,0 -0.2188,-0.2187 0,-0.2188 0,-0.375 0,-1.0625 0.2188,-1.2813 0.1562,-0.4374 0.875,-0.8126 0.1876,-0.2187 0,-1.6875 0.2187,-1.0312 -0.4063,-1.2813 -0.2187,-0.4375 -0.4375,-0.625 -0.2188,-0.6562 -0.1562,-1.2813 -0.6875,-1.0313 -0.375,-0.625 0,-0.4374 -0.2187,-0.8126 0.2187,-0.625 0,-0.875 -0.2187,-0.4062 -0.2188,-0.2188 0,-0.2187 0.2188,-0.375 0.375,-0.4375 0.4687,-0.2188 1.25,-0.2187 1.0625,-1.0625 0,-0.1562 0.4375,-0.9063 0.1563,-1.25 0.2187,-0.4063 -0.2187,-0.8124 0.2187,-0.4688 0.4687,-0.8125 0,-0.4375 0,-1.875 -0.8437,-1.0625 0,-0.4375 0.1563,-0.4062 0,-0.4376 0.2187,-1.6562 0,-0.6562 -0.2187,-0.2188 -0.5938,0 0,-0.1875 -0.2188,-0.2187 0,-0.2188 0,-0.2188 0,-0.4374 0,-0.1563 0,-0.4375 0.6563,-1.2812 0.1563,-0.4063 0,-0.2187 0.6874,-1.7188 0.375,-1.875 0.2188,-0.4375 0.2188,-0.375 0,-0.6875 -0.4376,-1.0312 0,-0.4063 0,-0.2187 0.4376,-0.8126 0.2187,-1.0624 0,-0.6563 0.4063,-0.2187 0.4374,-0.1563 0.2188,0 0.2188,-0.25 0.1562,-0.4375 0,-1.6562 0,-0.6563 -0.1562,-0.8437 -0.4376,-1.0313 -0.4374,-2.7187 0.875,-3 0.5937,-0.5938 0.4687,-1.5 0.8126,-2.0938 0.8437,-1.2812 0.4375,-0.5938 0,-0.2187 0,-0.4687 -0.4375,-0.5938 -0.2187,-0.4375 0.2187,-0.4063 0.6563,-1.0312 0,-0.2188 0.1562,-0.4687 0,-0.5937 0,-0.2188 0,-0.2188 0,-0.2187 -0.1562,-0.1875 -0.4376,-0.6562 -0.8437,-1.2813 -0.2187,-0.375 -0.2188,-0.8125 -0.5938,-1.5 0,-0.4375 0.1563,-0.625 0,-0.4375 -0.4063,-0.8438 0,-1.875 0.25,-1.2812 0,-0.6562 0.1563,0 0,-0.1563 -0.1563,0 0,-0.2187 -0.4687,-0.2188 -0.2187,-0.2188 0,-0.4062 0.4374,-0.6562 0,-0.375 0,-0.4688 0,-0.2188 -0.2187,-0.2187 -1.0313,-0.5937 -0.2187,0 -1.0625,-0.8438 -1.0625,-1.25 -0.375,-0.25 -0.2187,-0.2188 -0.2188,-0.375 0,-0.2187 0,-0.4375 0.4375,-0.8438 0.1563,-0.4374 0,-0.1563 0,-0.2187 0,-0.2188 -0.375,-0.25 -0.2188,-0.2188 -0.4375,-0.2187 -0.625,-0.1563 0,-0.2187 -0.2187,0 -2.5313,-3.1563 -0.625,-1.2812 -0.2187,-0.4375 -1.2813,-0.8125 -0.375,-0.4688 0,-0.1562 0,-0.6562 -0.2187,-0.625 0,-1.25 0,-1.5 0,-0.4063 0.2187,-0.2187 0.375,-0.4376 0.4687,-1.4374 0,-0.4376 -0.8437,-2.75 -0.4375,-0.8437 -0.2188,-0.625 -0.2187,-0.4375 0,-0.2188 0.4375,-0.5937 0.2188,-0.4375 0,-0.4062 -0.2188,-0.2188 0,-0.2188 -0.625,-0.375 -0.4375,-0.4687 -1.0313,-1.0313 -0.2187,0 0,-0.2187 -0.25,-0.2187 0.25,0 0.6563,-1.2813 0.5937,-0.625 0,-0.5937 0,-0.6563 0,-0.2187 0,-1.4376 0,-0.4374 0.2187,-0.4688 0,-0.1562 0,-0.4376 0,-0.2187 0,-0.2187 -0.4374,-1.4376 -0.375,-0.6874 -0.4376,-0.5938 0,-0.2188 -0.2187,0 0,-0.4374 -0.25,-0.4063 0,-0.2187 0,-0.2188 0.4687,-0.375 0.2188,-0.4375 -0.2188,-1.0625 -0.2187,-0.625 -0.25,-0.4375 0.25,-0.2187 0.4375,-0.375 0.2188,-0.2188 0.1562,-1.5 0.875,-1.2812 0,-0.2188 0,-0.375 -0.2188,-0.4375 0,-0.2187 -0.2187,-0.625 -0.4375,-0.4376 -0.1562,-0.4062 0.1562,-0.2188 1.9375,-0.2187 0.625,0.2187 0.4375,-0.2187 0.375,-0.2187 0.2188,-0.375 -0.2188,-0.4376 0.6562,-1.0624 -0.4374,-0.5938 -0.375,-0.2188 0,-0.4687 0.5937,-0.375 1.0625,-0.6563 0,-0.2187 0.2188,-1.0625 0.2187,-0.2188 0.1563,-0.1562 0.9062,-0.4688 0.8125,-1.4687 0.2187,-0.1875 1.0626,-0.4375 0,-0.2187 -0.6563,-0.8126 -0.625,-2.3437 0,-0.2187 0,-0.2188 0.4063,-0.375 1.4687,-0.2188 0.6875,-0.4687 0.1562,-0.1563 0.4376,-0.875 0,-0.1874 -0.2188,-0.4376 -0.375,-0.5937 -0.2188,-0.6563 0.375,-0.8437 0,-1.0625 0,-0.2188 0.2188,-0.5937 0.2188,-1.0625 0.2187,-0.4375 1.2813,-1.0625 0.1562,-0.6562 -0.1562,-0.5938 0.1562,-0.625 0,-0.2188 0,-0.2187 0,-0.2187 0,-0.2188 -0.1562,-0.1562 0,-0.25 -0.2188,-0.2188 0,-0.5938 0,-0.4374 0.2188,-0.2188 0,-0.2188 0,-0.4062 -0.2188,-0.4375 -0.4375,-0.4375 0,-0.625 0.2187,-1.4688 0,-0.625 0,-0.2187 0.2188,-0.5937 0.2188,-1.0626 0,-0.4374 -0.2188,-0.4376 0,-0.1874 0.2188,-1.25 0.375,-0.25 0.4374,-0.5938 0.25,-0.4375 0,-0.4375 -0.4687,-1.0625 -0.5937,-2.0937 -0.2188,-1.2813 -0.8438,-2.0937 -0.2187,-0.8438 -0.2187,-0.4375 0.2187,-0.1563 0,-0.2187 0.4063,-0.2187 1.25,-1.0626 0.2187,-0.2187 0.4687,-0.2187 1.6563,-2.2813 0,-0.2187 0.6563,-0.875 0.5937,-0.8438 1.6875,-2.0938 0.2188,-0.375 0.4374,-0.25 0.375,-0.2187 1.9376,-0.5937 3.375,-1.2813 1.0624,-0.4375 0.2188,-0.5938 0.1562,-0.4687 -0.1562,-0.2187 -0.2188,-0.375 0,-0.2188 0,-0.4375 0,-0.2187 0,-0.1876 0.2188,0 0.1562,-0.2187 0,-0.2187 0.2188,-0.4376 0.2188,-0.1562 0.2187,-0.2188 0.2187,0 0.1876,-0.25 0.4374,-0.2187 0.8126,0 1.5,-0.2187 1.5,-0.2188 0.1562,0 0.4688,-0.375 0.4374,-0.6562 0,-0.8438 -0.2187,0 0.2187,-0.375 0.1563,-0.4688 0.875,-0.4374 0.4063,-1.2188 0,-0.4375 0,-0.4375 0.4374,-0.2188 0.375,0 0.4376,-0.375 0.25,-0.4687 0.2187,-0.375 0.5937,-0.2187 0.6563,-0.2188 0.1875,-0.2188 0.2188,-0.2187 0,-0.4063 -0.2188,-0.2187 -0.1875,-0.4375 -1.7187,-1.4375 -1.0313,-0.6563 -1.875,-1.4374 -1.7187,-2.3438 -0.8438,-0.4375 -1.6562,-0.5937 -0.875,-0.4376 -5.25,-2.3437 -1.4376,-0.375 -0.4687,0 -0.2187,0 L 6137,5051 l 0,-0.2188 -0.2188,-0.2187 0,-1.2813 0.375,-1.4687 1.125,-1.0625 1.4376,-1.2188 0.2187,-0.4374 0.2187,-0.4376 0.2188,-0.1874 0,-0.4376 0,-0.6562 0.1562,-0.625 0.4376,-0.2188 0,-0.2187 0.2187,-0.375 -0.2187,-0.4375 0,-0.4062 0,-0.2188 -0.2188,-0.6562 0.2188,-0.1563 0,-0.4687 0.2187,-0.4376 0.2187,-0.1562 -0.2187,-0.875 -0.4375,-0.625 -0.2188,-0.4375 0.4376,-1.875 1.0624,-0.625 1.2813,-1.25 0,-0.2187 -0.6875,-2.125 -0.5938,-1.4688 -1.875,-0.4062 -1.5,-0.875 -0.375,-0.4063 -0.4687,-1.6875 0,-0.25 0,-0.1562 0,-1.0626 0.4687,-1.0312 0,-0.2188 0,-1.7187 -0.25,-0.625 0,-0.6563 -0.4374,-0.1562 0,-0.6562 -0.2188,-1.2813 -0.2188,-1.0625 0,-0.375 0,-0.2188 0,-0.2187 -0.8124,-1.6563 -0.2188,-0.25 -0.8438,-0.2187 -0.2187,0 -0.1563,-0.4375 -0.25,-0.375 -0.4374,-0.6562 0,-0.1876 -0.375,-0.875 0,-0.1562 0,-0.2188 0,-0.2187 -1.9376,-1.7187 -0.2187,-0.1876 -3.3125,-3.1874 -1.7188,-1.4376 -1.0624,-2.3437 -0.2188,-0.2187 0,-0.2188 0,-0.1562 -0.375,-1.0626 -0.2188,-0.4374 -0.2187,-1.2813 -0.25,-1.0313 -0.2187,-0.4687 -0.1563,0 -0.2187,-0.1563 -0.2188,-0.2187 0,-0.4375 -0.2188,-0.2188 0,-0.1874 0,-0.2188 0.2188,-0.4375 0.2188,-0.2187 0,-0.375 0,-0.2188 -0.2188,-0.2188 -0.2188,-0.2187 -0.4062,-0.25 -0.875,-0.1563 -0.1562,-0.875 0,-0.4062 0,-0.2188 0.375,-0.8124 0.2187,-0.4376 0.625,-0.625 0.2187,-0.4374 -0.8437,-2.0938 -1.5,-1.6562 -0.2187,-0.2188 -1.0313,-0.4688 -0.1875,-0.2187 -0.4375,-0.375 0,-0.2187 -0.2187,-0.8438 -1.0313,-4.1875 0,-0.2187 0.2187,-1.2813 0.2188,-0.8437 0,-0.4376 0,-0.4374 0,-0.375 0,-0.4688 0,-0.2188 -0.2188,-0.375 -0.4687,-0.4374 -0.1563,0 -0.2187,-0.4063 -0.8437,-0.4375 -0.6563,-0.6562 -0.4375,-0.5938 0,-1.2812 0,-0.8438 0.2188,-0.8125 0.2187,-0.2187 0.2187,-0.4688 0.2188,-0.1562 0,-0.2188 0.2188,-0.2188 -0.2188,-0.4374 0,-0.4063 -0.2188,-0.2187 -0.8124,-0.6563 -0.6563,-0.375 -0.4063,-0.4375 -0.6562,-0.625 -0.2188,-0.2188 -0.1874,0 0,-0.2187 -1.4688,-1.4375 -0.2188,-0.4375 -0.625,-1.0625 -0.2187,-0.4375 0,-0.375 0,-1.2813 0,-1.0624 0.2187,0 0.2188,-0.6563 0,-0.1563 0.1875,0 0,-0.2187 0.6563,-0.6875 0.2187,-0.2188 0,-0.375 0,-0.2187 -0.2187,-0.2187 0,-0.4063 0,-0.2187 0,-0.2188 -0.2188,-0.2188 -0.2188,-0.375 -0.4062,0 -0.4375,-0.2187 -0.2187,0 -0.4376,0 -0.625,-0.25 -0.2187,0 -0.2187,-0.2187 -0.1563,-0.375 -0.6563,-0.6563 0,-0.4063 0,-1.0937 0,-0.1563 -0.2187,-0.4687 0,-0.2187 0,-0.375 0,-0.4376 -0.1875,-0.4374 0,-0.1876 -0.2188,-1.4687 -0.4374,-1.9063 -0.375,-2.3124 -1.9376,-9.9063 -0.8437,-5.6875 -2.0937,-10.75 -0.2188,-1.25 -1.4375,-8.4375 -0.9063,-5.0625 -0.8124,-5.0625 -1.6563,-8.8437 -0.6875,-3.5938 -1.0312,-6.5312 -1.875,-10.7188 -3.5938,-20.25 -0.25,-1.4375 -1.25,-7.8125 -1.6562,-8.625 0,-0.8438 -0.2188,-0.2187 0,-0.4375 -1.2812,-7.7812 -1.4376,-7.8126 -1.9374,-10.75 0,-0.375 -1.875,-10.5624 -0.4063,-1.875 -0.4375,-3.375 -0.2188,-1.0626 -0.375,-2.75 -0.2187,-0.4062 -1.9375,-10.9375 0,-1.0625 -0.8438,-4.0312 -2.7187,-16 -1.25,-6.5313 0,-0.2187 0,-0.2188 -1.0625,-5.4688 -1.2812,-7.5937 -1.2813,-7.3437 0,-0.4376 -0.2187,-1.9062 -0.8126,-4.4062 -1.2812,-7.5938 -0.375,-1.875 -1.7188,-9.2812 0,-0.4063 -0.4062,-2.3125 -0.2188,-0.8438 -0.6562,-4.0312 -0.8125,-4.1875 -0.4687,-2.5625 -0.375,-3.1562 -0.2188,-0.1563 -1.0625,-6.375 -0.4375,-2.3125 -2.9375,-14.9375 0,-0.2187 -1.0313,-4.8126 -0.625,-3.1562 -0.2187,-1.0625 0,-0.2187 0,-0.875 -0.4375,-2.2813 -1.6562,-8.6875 -1.0626,-6.5312 0,-0.1563 -1.2812,-5.9063 0,-0.625 -0.6562,-3.1874 -1.0313,-5.5 0,-0.1563 -0.8437,-4.0313 0,-0.1874 -0.5938,-3.5938 -1.2812,-6.75 -1.0626,-6.75 -1.2812,-6.75 -0.8125,-5.8438 -1.0625,-5.9374 0,-0.2188 -0.6562,-3.75 0,-1.2812 -1.0626,-6.125 -0.8124,0 -0.2188,0 -12.4062,0 -0.6563,0 -0.2187,0 -3.7813,0 -12,-0.1876 -2.3125,0 -0.2188,0 -0.625,0 -4.8437,0 -5.5,0 -1.0313,0 -4,0 -19.4062,0 -0.8438,0 -0.8124,0 -12,0 -4,0 -3.8126,0 -7.125,0 -8.6874,0 -1.4376,0 -8.4687,-0.2187 -2.9375,0 -5.4688,0.2187 -5.0624,0 -0.8126,0 -2.1562,0 -5.4688,0 -0.625,0 -3.9687,0 -2.3437,0 -2.75,0 -1.6563,0 -6.1563,-0.2187 -2.7187,0 -1.6875,0 -0.4062,0 -0.4376,0 -0.2187,0 -15.7813,0 -5.25,0 -0.2187,0 -2.3125,0 -1.5,0 -0.625,0 -1.0312,0 -0.6563,0 -0.1875,0 -2.5312,0 -7.1876,-0.2187 -5.875,-0.2188 -0.4374,0 -0.4063,0 -0.2187,0 -2.0938,-0.2188 -1.7188,0 -1.6562,0 -3,0 -13.6562,-0.375 -2.5313,0 -3.5625,-0.25 -7.1875,-0.2187 -0.8125,0 -2.125,0 -5.9062,-0.2187 -4.2188,-0.1563 -7.5625,-0.2187 -1.5,0 -3.1563,0 -0.8124,-0.2188 -0.8438,0 -3.8125,0 -0.625,0 -1.0313,0 -1.2812,0 -0.8125,0 -7.5937,-0.2188 -6.375,0 -6.0626,-0.2187 -0.8437,0 -6.3437,0 -5.875,0 -1.0626,-0.2187 -2.5312,0 -1.2812,0 -0.5938,0 -0.2188,0 -1.0624,0 -7.375,-0.1876 -1.25,0 -1.0626,-0.2187 -6.9687,0 -4.6563,-0.2187 -0.1562,0 -3,0 -0.5938,0 -0.2187,0 -7.1563,-0.2188 -6.9687,0 -3.9687,0 -30.375,-0.8438 z m -1.4376,873.4376 0,1.875 -1.0624,1.875 -1.7188,1.5 -2.6875,0.4374 -2.3437,-0.2187 -8.2188,1.2813 -5.2812,1.0312 -3.5938,0.8438 -3.1562,0.375 -1.4376,-0.1563 -0.6562,0.375 1.2812,0.4375 3.9688,-0.4375 11.4062,-2.3125 2.0938,-0.1562 1.0625,-0.2188 3.5937,-0.4688 4.6563,0.2188 2.6875,0.625 1.7188,0.6562 4.8124,-0.4374 0.4376,-0.2188 0.25,-0.625 -1.9376,-1.875 -5.875,-4.4062 z"
       transform="translate(110.45034,95.837634)"
       id="rect2820" />
    <rect
       style="opacity:0.98999999;fill:#ffff00;fill-opacity:1;fill-rule:nonzero;stroke:none"
       id="rect2870"
       width="11.428571"
       height="2.8571427"
       x="6151.4282"
       y="5904.4775"
       transform="translate(110.45034,95.837634)" />
  </g>
</svg>
