<?xml version="1.0" encoding="UTF-8" standalone="no"?>
<svg
   xmlns:dc="http://purl.org/dc/elements/1.1/"
   xmlns:cc="http://creativecommons.org/ns#"
   xmlns:rdf="http://www.w3.org/1999/02/22-rdf-syntax-ns#"
   xmlns:svg="http://www.w3.org/2000/svg"
   xmlns="http://www.w3.org/2000/svg"
   xmlns:sodipodi="http://sodipodi.sourceforge.net/DTD/sodipodi-0.dtd"
   xmlns:inkscape="http://www.inkscape.org/namespaces/inkscape"
   version="1.1"
   viewBox="0 0 212 157"
   id="svg2"
   inkscape:version="0.48.4 r9939"
   sodipodi:docname="alabama.svg">
  <metadata
     id="metadata64">
    <rdf:RDF>
      <cc:Work
         rdf:about="">
        <dc:format>image/svg+xml</dc:format>
        <dc:type
           rdf:resource="http://purl.org/dc/dcmitype/StillImage" />
        <dc:title></dc:title>
      </cc:Work>
    </rdf:RDF>
  </metadata>
  <defs
     id="defs62" />
  <sodipodi:namedview
     pagecolor="#ffffff"
     bordercolor="#666666"
     borderopacity="1"
     objecttolerance="10"
     gridtolerance="10"
     guidetolerance="10"
     inkscape:pageopacity="0"
     inkscape:pageshadow="2"
     inkscape:window-width="1442"
     inkscape:window-height="990"
     id="namedview60"
     showgrid="false"
     inkscape:zoom="0.98603159"
     inkscape:cx="454.46863"
     inkscape:cy="289.36253"
     inkscape:window-x="-11"
     inkscape:window-y="-11"
     inkscape:window-maximized="1"
     inkscape:current-layer="svg2"
     fit-margin-top="0"
     fit-margin-left="0"
     fit-margin-right="0"
     fit-margin-bottom="0" />
  <style
     type="text/css"
     id="style4">
.state {
	fill:#d3d3d3;
	stroke:#fff;
	stroke-width:0.75;
	stroke-opacity:1;
}
</style>
  <path
     d="M 154.01421,21.51877 153.69089,106.8759 155.30749,107.84586 158.37906,108.00752 159.834,106.8759 162.42058,106.8759 162.58225,109.7858 169.53368,116.57557 170.01867,119.16215 173.41355,117.22221 174.0602,117.06055 174.38352,113.98899 175.83846,112.37238 176.9701,112.21072 178.91003,110.75576 181.98159,112.85736 182.62824,115.76727 184.56817,116.89889 185.6998,119.32381 189.57968,121.10208 192.97456,127.08355 195.72279,130.96341 197.98605,133.71166 199.44101,137.42986 204.4525,139.20814 209.62567,141.30973 210.59563,145.67459 211.08061,148.74615 210.11065,152.14104 208.33237,154.40429 206.71576,153.59599 205.26081,150.52442 202.51257,149.06948 200.7343,147.93784 199.92599,148.74615 201.38094,151.4944 201.5426,155.2126 200.41097,155.69758 198.47104,153.75765 196.36945,152.46436 196.85443,154.08097 198.14771,155.85925 197.33941,156.66755 C 197.33941,156.66755 196.53111,156.34423 196.04613,155.69758 195.56113,155.05094 193.94453,152.3027 193.94453,152.3027 L 192.97456,150.03944 C 192.97456,150.03944 192.65124,151.33273 192.00459,151.0094 191.35794,150.68608 190.7113,149.55446 190.7113,149.55446 L 192.48957,147.61452 191.03462,146.15957 191.03462,141.14807 190.22632,141.14807 189.41802,144.54295 188.28638,145.02795 187.31642,141.30973 186.66977,137.59152 185.86146,137.10654 186.18479,142.76469 186.18479,143.89631 184.72983,142.60303 181.17329,136.62156 179.07169,136.13658 178.42505,132.41837 176.80844,129.50847 175.19182,128.37683 175.19182,126.11358 177.29342,124.82029 176.80844,124.49697 174.22186,125.14361 170.82697,122.7187 168.24039,119.80879 163.39056,117.22221 159.34902,114.63563 160.64232,111.40241 160.64232,109.7858 158.86404,111.40241 155.95414,112.53404 152.23593,111.40241 146.57778,108.9775 141.08131,108.9775 140.43467,109.46248 133.96822,105.5826 131.86662,105.25928 129.11838,99.43948 125.56183,99.7628 122.00528,101.21775 122.49027,105.74427 123.62189,102.83437 124.59187,103.15769 123.13691,107.52254 126.37013,104.7743 127.01678,106.39091 123.13691,110.75576 121.84362,110.43244 121.35864,108.4925 120.06535,107.6842 118.77206,108.81583 116.02382,107.03756 112.95225,109.13916 111.17399,111.24075 107.7791,113.34235 103.09092,113.18068 102.60594,111.07909 106.32414,110.43244 106.32414,109.13916 104.06088,108.4925 105.03086,106.06759 107.29411,102.18772 107.29411,100.40945 107.45577,99.60114 111.82063,97.33788 112.79059,98.63117 115.53884,98.63117 114.24555,96.0446 110.52733,95.72127 105.51584,98.46951 103.09092,101.86439 101.31265,104.45098 100.18102,106.71424 95.97783,108.16918 92.90626,110.75576 92.582939,112.37238 94.846196,113.34235 95.654509,115.44393 92.90626,118.67716 86.439821,122.88036 78.680074,127.08355 76.578477,128.21517 71.243659,129.34681 65.908833,131.61006 67.687108,132.90335 66.232154,134.3583 65.747172,135.48993 62.998934,134.51996 59.765714,134.68162 58.957402,136.94488 57.987439,136.94488 58.31076,134.51996 54.754209,135.81326 51.84431,136.78322 48.449424,135.48993 45.539523,137.42986 42.306299,137.42986 40.204702,138.72316 38.58809,139.53146 36.486495,139.20814 33.899915,138.07651 31.636658,138.72316 30.666691,139.69312 29.050078,138.5615 29.050078,136.62156 32.121642,135.32827 38.426429,135.97492 42.791282,134.3583 44.892878,132.25671 47.80278,131.61006 49.581053,130.80175 52.329294,130.96341 53.945906,132.25671 54.915869,131.93339 57.179126,129.18515 60.250696,128.21517 63.645576,127.56853 64.93887,127.24521 65.585512,127.73019 66.393824,127.73019 67.687108,124.01198 71.728641,122.55704 73.668577,118.83883 75.931836,114.31231 77.548451,112.85736 77.871772,110.27078 76.255157,111.56407 72.860264,112.21072 72.213622,109.7858 70.920338,109.46248 69.950365,110.43244 69.788705,113.34235 68.33375,113.18068 66.878806,107.36088 65.585512,108.65416 64.453888,108.16918 64.130568,106.22925 60.089035,106.39091 57.987439,107.52254 55.400861,107.19922 56.855805,105.74427 57.340786,103.15769 56.694145,101.21775 58.149099,100.24779 59.442383,100.08613 58.795741,98.30785 58.795741,93.943 57.825778,92.97303 57.017466,94.42798 50.874343,94.42798 49.419392,93.13469 48.772747,89.25483 46.671151,85.69827 46.671151,84.72831 48.772747,83.92 48.934408,81.8184 50.066036,80.68678 49.257731,80.2018 47.964441,80.68678 46.832813,77.93854 47.80278,72.92703 52.329294,69.69382 54.915869,68.0772 56.855805,64.359 59.604054,63.0657 62.190632,64.19734 62.513953,66.62226 64.93887,66.29892 68.17209,63.87401 69.788705,64.52066 70.758667,65.1673 72.375282,65.1673 74.638541,63.87401 75.446854,59.50915 C 75.446854,59.50915 75.770175,56.59926 76.416817,56.11427 77.063459,55.62929 77.38678,55.14431 77.38678,55.14431 L 76.255157,53.20437 73.668577,54.01268 70.435347,54.82098 68.495411,54.336 64.93887,52.55772 59.927375,52.39606 56.370824,48.67786 56.855805,44.79799 57.502457,42.37307 55.400861,40.5948 53.460923,36.87658 53.945906,36.06828 60.735677,35.5833 62.837273,35.5833 63.807236,36.55326 64.453888,36.55326 64.292228,34.93665 68.17209,34.29001 70.758667,34.61333 72.213622,35.74496 70.758667,37.84656 70.273686,39.3015 73.021935,40.91812 78.033432,42.69639 79.811708,41.72643 77.548451,37.36158 76.578477,34.12835 77.548451,33.32004 74.15356,31.38011 73.668577,30.24847 74.15356,28.63187 73.345256,24.752 70.435347,20.06382 68.010429,15.86063 70.920338,13.92069 74.15356,13.92069 75.931836,14.56734 80.135028,14.40568 83.853233,10.84914 84.984866,7.77757 88.703078,5.35265 90.319682,6.32262 93.067921,5.67597 96.78613,3.57437 97.91777,3.41271 98.88773,4.22103 103.41424,4.05936 106.16248,0.9878 107.29411,0.9878 110.85066,3.41271 112.79059,5.51431 112.30561,6.64594 112.95225,7.77757 114.56887,6.16096 118.44874,6.48428 118.77206,10.20248 120.712,11.65744 127.82509,12.30408 134.12988,16.50727 135.58482,15.53731 140.75799,18.12389 142.85958,17.47725 144.79952,16.66893 149.64935,18.60887 154.01421,21.51877 z M 38.911413,50.45613 41.013009,55.79095 40.851347,56.76092 37.941445,56.43759 36.163172,52.39606 34.384899,50.94112 31.95998,50.94112 31.79832,48.35453 33.576593,45.92961 34.708222,48.35453 36.163172,49.80948 38.911413,50.45613 z M 36.324833,83.92 40.043042,84.72831 43.761249,85.69827 44.569556,86.66825 42.952944,90.38645 39.88138,90.22479 36.486495,86.66825 36.324833,83.92 z M 15.632197,69.85548 16.763827,72.44205 17.895455,74.05867 16.763827,74.86697 14.66223,71.79541 14.66223,69.85548 15.632197,69.85548 z M 1.8909943,142.92635 5.2858796,140.66309 8.680765,139.69312 11.267345,140.01644 11.752328,141.63305 13.692263,142.11804 15.632197,140.17811 15.308875,138.5615 18.057116,137.91485 20.967018,140.50143 19.835389,142.2797 15.470537,143.41133 12.722295,142.92635 9.004088,141.79472 4.6392347,143.24967 3.0226227,143.57299 1.8909943,142.92635 z M 50.874343,138.39984 52.490955,140.33977 54.592548,138.72316 53.1376,137.42986 50.874343,138.39984 z M 53.784245,141.47139 54.915869,139.20814 57.017466,139.53146 56.209163,141.47139 53.784245,141.47139 z M 77.38678,139.53146 78.841734,141.30973 79.811708,140.17811 79.003395,138.23817 77.38678,139.53146 z M 86.11649,127.08355 87.248123,132.90335 90.158022,133.71166 95.169517,130.80175 99.53437,128.21517 97.91777,125.79026 98.40275,123.36534 96.30115,124.65863 93.391252,123.85032 95.007857,122.7187 96.94779,123.527 100.82766,121.74872 101.31265,120.29378 98.88773,119.48547 99.69603,117.54553 96.94779,119.48547 92.259618,123.04202 87.409784,125.95192 86.11649,127.08355 z M 128.47173,107.19922 130.89665,105.74427 129.92668,103.96599 128.14841,104.93596 128.47173,107.19922 z"
     id="AK"
     class="state"
     style="fill:#ffffff;fill-opacity:1;stroke:#000000;stroke-width:2;stroke-miterlimit:4;stroke-opacity:1;stroke-dasharray:none"
     inkscape:connector-curvature="0" />
</svg>
