<?xml version="1.0" encoding="UTF-8" standalone="no"?>
<svg
   xmlns:dc="http://purl.org/dc/elements/1.1/"
   xmlns:cc="http://creativecommons.org/ns#"
   xmlns:rdf="http://www.w3.org/1999/02/22-rdf-syntax-ns#"
   xmlns:svg="http://www.w3.org/2000/svg"
   xmlns="http://www.w3.org/2000/svg"
   xmlns:sodipodi="http://sodipodi.sourceforge.net/DTD/sodipodi-0.dtd"
   xmlns:inkscape="http://www.inkscape.org/namespaces/inkscape"
   version="1.1"
   width="119.71875"
   height="133.28125"
   id="svg2"
   inkscape:version="0.48.4 r9939"
   sodipodi:docname="arizona.svg">
  <metadata
     id="metadata64">
    <rdf:RDF>
      <cc:Work
         rdf:about="">
        <dc:format>image/svg+xml</dc:format>
        <dc:type
           rdf:resource="http://purl.org/dc/dcmitype/StillImage" />
        <dc:title></dc:title>
      </cc:Work>
    </rdf:RDF>
  </metadata>
  <defs
     id="defs62" />
  <sodipodi:namedview
     pagecolor="#ffffff"
     bordercolor="#666666"
     borderopacity="1"
     objecttolerance="10"
     gridtolerance="10"
     guidetolerance="10"
     inkscape:pageopacity="0"
     inkscape:pageshadow="2"
     inkscape:window-width="1442"
     inkscape:window-height="990"
     id="namedview60"
     showgrid="false"
     inkscape:zoom="1"
     inkscape:cx="-62.268453"
     inkscape:cy="-29.5625"
     inkscape:window-x="-11"
     inkscape:window-y="-11"
     inkscape:window-maximized="1"
     inkscape:current-layer="svg2"
     fit-margin-top="0"
     fit-margin-left="0"
     fit-margin-right="0"
     fit-margin-bottom="0" />
  <style
     type="text/css"
     id="style4">
.state {
	fill:#d3d3d3;
	stroke:#fff;
	stroke-width:0.75;
	stroke-opacity:1;
}
</style>
  <path
     d="M 4.00495,85.59784 1.37794,87.75617 1.05462,89.21112 1.5396,90.18108 20.45387,100.85067 32.57841,108.44871 47.28951,117.01672 64.1022,127.03967 76.3884,129.46458 101.33956,132.16949 118.59517,13.04242 34.85954,1.12517 31.76715,17.53763 30.16086,17.55293 28.44619,20.18209 25.93134,20.06777 24.67392,17.3243 21.93045,16.98137 21.01595,15.83826 20.10147,15.83826 19.18697,16.40982 17.24368,17.43862 17.12938,24.4116 16.90074,26.12627 16.3292,38.70051 14.84315,40.87242 14.27159,44.18745 17.01506,49.10284 18.27248,54.93272 19.07267,55.96152 20.10147,56.53308 19.98715,58.8193 18.3868,60.19103 14.95746,61.9057 13.01417,63.849 11.52812,67.50695 10.95656,72.42234 8.09878,75.16581 6.04118,75.85168 6.17687,76.68156 5.71962,78.39623 6.17687,79.19641 9.83483,79.76795 9.26327,82.51143 7.77722,84.68334 4.00495,85.59783 z"
     id="AZ"
     class="state"
     style="fill:#ffffff;fill-opacity:1;stroke:#000000;stroke-width:2;stroke-miterlimit:4;stroke-opacity:1;stroke-dasharray:none"
     inkscape:connector-curvature="0" />
</svg>
