<?xml version="1.0" encoding="UTF-8" standalone="no"?>
<svg
   xmlns:dc="http://purl.org/dc/elements/1.1/"
   xmlns:cc="http://creativecommons.org/ns#"
   xmlns:rdf="http://www.w3.org/1999/02/22-rdf-syntax-ns#"
   xmlns:svg="http://www.w3.org/2000/svg"
   xmlns="http://www.w3.org/2000/svg"
   xmlns:sodipodi="http://sodipodi.sourceforge.net/DTD/sodipodi-0.dtd"
   xmlns:inkscape="http://www.inkscape.org/namespaces/inkscape"
   version="1.1"
   viewBox="0 0 141 235"
   id="svg2"
   inkscape:version="0.48.4 r9939"
   sodipodi:docname="california.svg">
  <metadata
     id="metadata64">
    <rdf:RDF>
      <cc:Work
         rdf:about="">
        <dc:format>image/svg+xml</dc:format>
        <dc:type
           rdf:resource="http://purl.org/dc/dcmitype/StillImage" />
      </cc:Work>
    </rdf:RDF>
  </metadata>
  <defs
     id="defs62" />
  <sodipodi:namedview
     pagecolor="#ffffff"
     bordercolor="#666666"
     borderopacity="1"
     objecttolerance="10"
     gridtolerance="10"
     guidetolerance="10"
     inkscape:pageopacity="0"
     inkscape:pageshadow="2"
     inkscape:window-width="1442"
     inkscape:window-height="990"
     id="namedview60"
     showgrid="false"
     inkscape:zoom="0.98603159"
     inkscape:cx="433.74988"
     inkscape:cy="79.550029"
     inkscape:window-x="-11"
     inkscape:window-y="-11"
     inkscape:window-maximized="1"
     inkscape:current-layer="svg2"
     fit-margin-top="0"
     fit-margin-left="0"
     fit-margin-right="0"
     fit-margin-bottom="0" />
  <style
     type="text/css"
     id="style4">
.state {
	fill:#d3d3d3;
	stroke:#fff;
	stroke-width:0.75;
	stroke-opacity:1;
}
</style>
  <path
     d="M 123.97568,234.16688 127.91576,233.67826 129.4018,231.66682 129.94634,228.72573 126.39482,228.13561 125.88065,227.46739 126.35815,225.43508 126.19887,224.84541 128.12144,224.22582 131.16422,221.39314 131.74578,216.39804 133.12568,212.99593 135.06897,210.82967 138.58784,209.24 140.24223,207.63517 140.31093,205.52633 139.3176,204.94632 138.29445,203.87359 137.13923,198.02514 134.45403,193.19505 135.01984,189.69005 132.60026,188.66074 63.538938,84.48234 82.44105,16.88085 15.361187,1.18289 13.854291,5.91613 13.69263,13.35251 8.519495,25.15372 5.447947,27.74029 5.124626,28.87191 3.34636,29.68022 1.891416,33.88339 1.083114,37.1166 3.831342,41.31977 5.447947,45.52294 6.57957,49.07947 6.256249,55.54589 4.477984,58.61744 3.831342,64.43722 2.861379,68.15541 4.639644,72.03526 7.387872,76.56175 9.651119,81.41157 10.944402,85.45308 10.621082,88.68629 10.297761,89.17127 10.297761,91.27285 15.955877,97.57761 15.470896,100.00252 14.824254,102.26577 14.177612,104.20569 14.339272,112.45038 16.440858,116.16857 18.380784,118.75513 21.129012,119.24012 22.098975,121.98834 20.967352,125.54487 18.865765,127.16148 17.734142,127.16148 16.92584,131.04133 17.410821,133.95122 20.644031,138.31605 22.260635,143.65085 23.715579,148.339 25.008863,151.41055 28.403733,157.23033 29.858677,159.81689 30.343659,162.72678 31.960263,163.69674 31.960263,166.12165 31.151961,168.06158 29.373696,175.17464 28.888714,177.11456 31.313622,179.86279 35.516794,180.34777 40.043287,182.12604 43.923138,184.22762 46.833027,184.22762 49.742915,187.29917 52.329482,192.14899 53.461106,194.41223 57.340957,196.51382 62.190771,197.32212 63.645715,199.42371 64.292357,202.65692 62.837413,203.30356 63.160734,204.27352 66.393945,205.08182 69.142173,205.24349 72.302062,203.55664 76.181916,207.75981 76.990218,210.02306 79.57679,214.22623 79.90011,217.45944 79.90011,226.83575 80.38509,228.61401 90.40804,230.06896 110.13061,232.81718 123.97565,234.16688 z M 35.840468,190.4502 37.133756,191.98598 36.972096,193.27927 33.738875,193.19847 33.173061,191.98601 32.526417,190.53106 35.840468,190.45026 z M 37.7804,190.4502 38.992858,189.80356 42.549401,191.90515 45.620961,193.1176 44.731825,193.76426 40.205316,193.52176 38.588706,191.90515 37.7804,190.4502 z M 58.473014,210.25368 60.251279,212.59776 61.059592,213.56773 62.595371,214.13354 63.161178,212.67859 62.191215,210.90032 59.523812,208.87956 58.473014,209.04122 58.473014,210.25368 z M 57.018059,218.90254 58.796335,222.05493 60.008793,223.99487 58.553839,224.23735 57.260555,223.0249 C 57.260555,223.0249 56.533078,221.56995 56.533078,221.16579 56.533078,220.76165 56.533078,218.98337 56.533078,218.98337 L 57.018059,218.90257 z"
     id="CA"
     class="state"
     style="fill:#ffffff;fill-opacity:1;stroke:#000000;stroke-width:2;stroke-miterlimit:4;stroke-opacity:1;stroke-dasharray:none"
     inkscape:connector-curvature="0" />
</svg>
