<?xml version="1.0" encoding="UTF-8" standalone="no"?>
<svg
   xmlns:dc="http://purl.org/dc/elements/1.1/"
   xmlns:cc="http://creativecommons.org/ns#"
   xmlns:rdf="http://www.w3.org/1999/02/22-rdf-syntax-ns#"
   xmlns:svg="http://www.w3.org/2000/svg"
   xmlns="http://www.w3.org/2000/svg"
   xmlns:sodipodi="http://sodipodi.sourceforge.net/DTD/sodipodi-0.dtd"
   xmlns:inkscape="http://www.inkscape.org/namespaces/inkscape"
   version="1.1"
   viewBox="0 0 95 100"
   id="svg2"
   inkscape:version="0.48.4 r9939"
   sodipodi:docname="florida.svg">
  <metadata
     id="metadata64">
    <rdf:RDF>
      <cc:Work
         rdf:about="">
        <dc:format>image/svg+xml</dc:format>
        <dc:type
           rdf:resource="http://purl.org/dc/dcmitype/StillImage" />
        <dc:title></dc:title>
      </cc:Work>
    </rdf:RDF>
  </metadata>
  <defs
     id="defs62" />
  <sodipodi:namedview
     pagecolor="#ffffff"
     bordercolor="#666666"
     borderopacity="1"
     objecttolerance="10"
     gridtolerance="10"
     guidetolerance="10"
     inkscape:pageopacity="0"
     inkscape:pageshadow="2"
     inkscape:window-width="1442"
     inkscape:window-height="990"
     id="namedview60"
     showgrid="false"
     inkscape:zoom="0.95"
     inkscape:cx="-195.2843"
     inkscape:cy="111.77164"
     inkscape:window-x="-11"
     inkscape:window-y="-11"
     inkscape:window-maximized="1"
     inkscape:current-layer="svg2"
     fit-margin-top="0"
     fit-margin-left="0"
     fit-margin-right="0"
     fit-margin-bottom="0" />
  <style
     type="text/css"
     id="style4">
.state {
	fill:#d3d3d3;
	stroke:#fff;
	stroke-width:0.75;
	stroke-opacity:1;
}
</style>
  <path
     d="M 1.01104,6.08305 1.01104,8.26547 1.1727,10.36707 1.81934,13.76194 5.21422,21.68331 7.63913,31.54462 9.09407,37.68773 10.71068,42.53754 12.16563,49.48895 14.26722,55.79372 16.85379,59.1886 17.33877,62.58347 19.2787,63.39177 19.44036,65.49337 17.66209,70.34318 17.17711,73.5764 17.01545,75.51633 18.63206,79.88117 18.95538,85.21597 18.14707,87.64088 18.79372,88.44919 20.24867,89.25749 20.45337,92.47558 22.68638,95.82511 24.93682,97.98716 32.8582,98.14882 43.67795,97.50218 65.19034,96.2089 70.63606,95.53453 75.21331,95.56223 75.37497,98.47212 77.96154,99.28042 78.28486,94.91558 76.66825,90.38908 77.79988,88.77248 83.61966,89.58078 88.59707,89.89856 87.82165,83.59977 90.08489,73.57682 91.53984,69.37364 91.05485,66.78708 94.38926,60.54278 93.87896,59.1911 91.96555,59.89568 89.37899,58.60238 88.73234,56.50079 87.43906,52.94426 85.1758,50.84267 82.58924,50.19603 80.97263,45.34621 78.04762,39.01121 73.84445,37.07128 71.74285,35.13135 70.44956,32.54478 68.34798,30.60485 66.08473,29.31156 63.82148,26.40167 60.74993,24.13843 56.22342,22.36015 55.73844,20.90521 53.31353,17.99532 52.82855,16.54037 49.43367,11.56989 45.9138,11.66909 42.15889,9.31295 40.74061,8.01967 40.41729,6.2414 41.28809,4.30148 43.51473,3.19134 42.88079,1.09412 1.01104,6.08305 z"
     id="GA"
     class="state"
     style="fill:#ffffff;fill-opacity:1;stroke:#000000;stroke-width:2;stroke-miterlimit:4;stroke-opacity:1;stroke-dasharray:none"
     inkscape:connector-curvature="0" />
</svg>
