<?xml version="1.0" encoding="UTF-8" standalone="no"?>
<svg
   xmlns:dc="http://purl.org/dc/elements/1.1/"
   xmlns:cc="http://creativecommons.org/ns#"
   xmlns:rdf="http://www.w3.org/1999/02/22-rdf-syntax-ns#"
   xmlns:svg="http://www.w3.org/2000/svg"
   xmlns="http://www.w3.org/2000/svg"
   xmlns:sodipodi="http://sodipodi.sourceforge.net/DTD/sodipodi-0.dtd"
   xmlns:inkscape="http://www.inkscape.org/namespaces/inkscape"
   version="1.1"
   viewBox="0 0 116 74"
   id="svg2"
   inkscape:version="0.48.4 r9939"
   sodipodi:docname="georgia.svg">
  <metadata
     id="metadata64">
    <rdf:RDF>
      <cc:Work
         rdf:about="">
        <dc:format>image/svg+xml</dc:format>
        <dc:type
           rdf:resource="http://purl.org/dc/dcmitype/StillImage" />
        <dc:title></dc:title>
      </cc:Work>
    </rdf:RDF>
  </metadata>
  <defs
     id="defs62" />
  <sodipodi:namedview
     pagecolor="#ffffff"
     bordercolor="#666666"
     borderopacity="1"
     objecttolerance="10"
     gridtolerance="10"
     guidetolerance="10"
     inkscape:pageopacity="0"
     inkscape:pageshadow="2"
     inkscape:window-width="1442"
     inkscape:window-height="990"
     id="namedview60"
     showgrid="false"
     inkscape:zoom="0.95"
     inkscape:cx="234.08154"
     inkscape:cy="102.49039"
     inkscape:window-x="-11"
     inkscape:window-y="-11"
     inkscape:window-maximized="1"
     inkscape:current-layer="svg2"
     fit-margin-top="0"
     fit-margin-left="0"
     fit-margin-right="0"
     fit-margin-bottom="0" />
  <style
     type="text/css"
     id="style4">
.state {
	fill:#d3d3d3;
	stroke:#fff;
	stroke-width:0.75;
	stroke-opacity:1;
}
</style>
  <path
     d="M 1.68126,10.24698 3.62119,6.69043 5.88445,6.36711 6.20777,7.17541 4.10617,10.24698 1.68126,10.24698 z M 11.86592,6.52877 18.00905,9.11534 20.11064,8.79202 21.72725,4.91215 21.08061,1.51727 16.87741,1.03229 12.83588,2.81056 11.86592,6.52877 z M 42.58155,16.55177 46.29975,22.04824 48.72467,21.72492 49.8563,21.23994 51.31125,22.53323 55.02946,22.37157 55.99943,20.91662 53.08952,19.13835 51.14959,15.42013 49.04799,11.86359 43.22819,14.77349 42.58155,16.55177 z M 62.7892,25.44314 64.08249,23.5032 68.77066,24.47316 69.41731,23.98818 75.56043,24.63482 75.23711,25.92812 72.65053,27.38306 68.28568,27.05974 62.7892,25.44314 z M 68.12402,30.61629 70.06396,34.49616 73.13551,33.36453 73.45884,31.74791 71.84223,29.64632 68.12402,29.323 68.12402,30.61629 z M 75.07545,29.48466 77.33871,26.57476 82.02688,28.99968 86.39173,30.13131 90.75659,32.87955 90.75659,34.81948 87.20005,36.59776 82.3502,37.56772 79.92529,36.11277 75.07545,29.48466 z M 91.72656,45.00413 93.34317,43.71085 96.73806,45.32747 104.33613,48.88401 107.73102,50.9856 109.34762,53.41052 111.28756,57.77537 115.32909,60.36195 115.00577,61.65525 111.1259,64.88847 106.92271,66.34342 105.46776,65.69678 102.39619,67.47504 99.97128,70.70827 97.70802,73.61817 95.92974,73.45651 92.3732,70.86993 92.04988,66.34342 92.69652,63.9185 91.07991,58.26036 88.97831,56.48208 88.81665,53.8955 91.07991,52.92554 93.18151,49.85398 93.66649,48.88401 92.04988,47.10573 91.72656,45.00413 z"
     id="HI"
     class="state"
     style="fill:#ffffff;fill-opacity:1;stroke:#000000;stroke-width:2;stroke-miterlimit:4;stroke-opacity:1;stroke-dasharray:none"
     inkscape:connector-curvature="0" />
</svg>
