<?xml version="1.0" encoding="UTF-8" standalone="no"?>
<svg
   xmlns:dc="http://purl.org/dc/elements/1.1/"
   xmlns:cc="http://creativecommons.org/ns#"
   xmlns:rdf="http://www.w3.org/1999/02/22-rdf-syntax-ns#"
   xmlns:svg="http://www.w3.org/2000/svg"
   xmlns="http://www.w3.org/2000/svg"
   xmlns:sodipodi="http://sodipodi.sourceforge.net/DTD/sodipodi-0.dtd"
   xmlns:inkscape="http://www.inkscape.org/namespaces/inkscape"
   version="1.1"
   viewBox="0 0 106 70"
   id="svg2"
   inkscape:version="0.48.4 r9939"
   sodipodi:docname="indiana.svg">
  <metadata
     id="metadata64">
    <rdf:RDF>
      <cc:Work
         rdf:about="">
        <dc:format>image/svg+xml</dc:format>
        <dc:type
           rdf:resource="http://purl.org/dc/dcmitype/StillImage" />
        <dc:title></dc:title>
      </cc:Work>
    </rdf:RDF>
  </metadata>
  <defs
     id="defs62" />
  <sodipodi:namedview
     pagecolor="#ffffff"
     bordercolor="#666666"
     borderopacity="1"
     objecttolerance="10"
     gridtolerance="10"
     guidetolerance="10"
     inkscape:pageopacity="0"
     inkscape:pageshadow="2"
     inkscape:window-width="1442"
     inkscape:window-height="990"
     id="namedview60"
     showgrid="false"
     inkscape:zoom="0.95"
     inkscape:cx="-56.055047"
     inkscape:cy="-22.367483"
     inkscape:window-x="-11"
     inkscape:window-y="-11"
     inkscape:window-maximized="1"
     inkscape:current-layer="svg2"
     fit-margin-top="0"
     fit-margin-left="0"
     fit-margin-right="0"
     fit-margin-bottom="0" />
  <style
     type="text/css"
     id="style4">
.state {
	fill:#d3d3d3;
	stroke:#fff;
	stroke-width:0.75;
	stroke-opacity:1;
}
</style>
  <path
     d="M 96.69146,21.18924 96.95584,23.97544 99.17956,24.5527 100.1335,25.77803 100.63351,27.63339 104.42635,30.99204 105.11222,33.38354 104.43788,36.80801 102.85557,40.03999 102.05623,42.78178 99.88348,44.38382 98.16797,44.95622 92.58895,46.81642 91.19749,50.66511 91.92613,52.03685 93.76664,53.71944 93.48371,57.75573 91.72056,59.29359 90.94915,60.93673 91.07637,63.71305 89.19006,64.17029 87.56461,65.2752 87.28582,66.62783 87.56461,68.74275 86.01359,69.85882 83.54306,66.72554 82.28049,64.27567 16.54467,66.79052 15.62664,66.95596 13.57424,62.44 13.34562,55.80993 11.74526,51.69472 11.0594,46.43641 8.77317,42.77844 7.85869,37.97737 5.11521,30.43282 3.9721,25.06018 2.60036,22.88827 1,20.14481 2.95398,15.30098 4.32572,9.58541 1.58225,7.5278 1.125,4.78433 2.0395,2.26948 3.75417,2.26948 86.40817,1 87.24243,5.18312 89.49461,6.74409 89.75132,8.16718 87.72178,11.55649 87.91219,14.76201 90.42705,18.56021 92.95384,19.85383 96.03312,20.35688 96.69146,21.18924 z"
     id="IA"
     class="state"
     style="fill:#ffffff;fill-opacity:1;stroke:#000000;stroke-width:2;stroke-miterlimit:4;stroke-opacity:1;stroke-dasharray:none"
     inkscape:connector-curvature="0" />
</svg>
