<?xml version="1.0" encoding="UTF-8" standalone="no"?>
<svg
   xmlns:dc="http://purl.org/dc/elements/1.1/"
   xmlns:cc="http://creativecommons.org/ns#"
   xmlns:rdf="http://www.w3.org/1999/02/22-rdf-syntax-ns#"
   xmlns:svg="http://www.w3.org/2000/svg"
   xmlns="http://www.w3.org/2000/svg"
   xmlns:sodipodi="http://sodipodi.sourceforge.net/DTD/sodipodi-0.dtd"
   xmlns:inkscape="http://www.inkscape.org/namespaces/inkscape"
   version="1.1"
   viewBox="0 0 130 66"
   id="svg2"
   inkscape:version="0.48.4 r9939"
   sodipodi:docname="kansas.svg">
  <metadata
     id="metadata64">
    <rdf:RDF>
      <cc:Work
         rdf:about="">
        <dc:format>image/svg+xml</dc:format>
        <dc:type
           rdf:resource="http://purl.org/dc/dcmitype/StillImage" />
        <dc:title></dc:title>
      </cc:Work>
    </rdf:RDF>
  </metadata>
  <defs
     id="defs62" />
  <sodipodi:namedview
     pagecolor="#ffffff"
     bordercolor="#666666"
     borderopacity="1"
     objecttolerance="10"
     gridtolerance="10"
     guidetolerance="10"
     inkscape:pageopacity="0"
     inkscape:pageshadow="2"
     inkscape:window-width="1442"
     inkscape:window-height="990"
     id="namedview60"
     showgrid="false"
     inkscape:zoom="0.95"
     inkscape:cx="-144.7124"
     inkscape:cy="81.911888"
     inkscape:window-x="-11"
     inkscape:window-y="-11"
     inkscape:window-maximized="1"
     inkscape:current-layer="svg2"
     fit-margin-top="0"
     fit-margin-left="0"
     fit-margin-right="0"
     fit-margin-bottom="0" />
  <style
     type="text/css"
     id="style4">
.state {
	fill:#d3d3d3;
	stroke:#fff;
	stroke-width:0.75;
	stroke-opacity:1;
}
</style>
  <path
     d="M 129.80643,29.9813 127.51311,32.38298 123.93492,36.37702 119.01037,41.84169 117.7946,43.55746 117.7321,45.65904 113.35224,47.82313 107.69412,51.21801 100.46225,53.01686 48.59436,57.91572 32.8348,59.69398 28.2136,60.20669 24.34525,60.17899 24.1183,64.39927 15.93889,64.54383 8.98748,65.19047 1,65.13027 2.20778,63.81019 4.70732,62.26934 4.93595,59.06861 5.85044,57.23963 4.24362,54.70073 5.04545,52.79392 7.30871,51.01566 9.41029,50.36901 12.15852,51.6623 15.71506,52.95558 16.84669,52.63226 17.00835,50.36901 15.71506,47.9441 16.03838,45.68085 17.97831,44.22591 20.56489,43.57926 22.18149,42.93262 21.37319,41.15435 20.72655,39.21442 22.23317,38.21862 C 22.23617,38.18152 23.48713,34.69633 23.47146,34.56081 L 26.52468,33.08213 31.84447,32.11217 36.33851,31.62719 37.73095,33.25462 39.25922,34.12542 40.84999,31.01721 44.03707,29.73459 46.24216,31.21862 46.65272,32.21766 47.82624,31.95365 47.66457,29.00072 50.79544,27.25153 52.94353,26.17805 54.47289,27.83886 57.79104,27.79466 58.37837,26.22341 58.01086,23.96017 60.61139,19.96167 65.38794,16.52377 66.09389,11.68791 69.01891,11.232 72.81037,9.58632 75.25369,7.87808 75.05536,6.31315 73.91291,4.85821 74.47873,1.8633 78.66358,1.7458 80.96349,1 84.31088,2.4291 86.36499,6.79394 91.49728,6.80474 93.54829,9.01293 95.16374,8.86523 97.76543,7.58706 103.00249,8.16043 105.57741,8.37794 107.26499,6.3217 109.88294,4.89582 111.76472,4.18872 112.41136,7.02535 114.45479,8.08369 117.09755,10.16618 117.21502,15.83942 118.02332,17.41183 120.61304,18.96811 121.38468,21.26262 125.54457,24.69956 127.34988,28.3228 129.80643,29.98132 z"
     id="KY"
     class="state"
     style="fill:#ffffff;fill-opacity:1;stroke:#000000;stroke-width:2;stroke-miterlimit:4;stroke-opacity:1;stroke-dasharray:none"
     inkscape:connector-curvature="0" />
</svg>
