<?xml version="1.0" encoding="UTF-8" standalone="no"?>
<svg
   xmlns:dc="http://purl.org/dc/elements/1.1/"
   xmlns:cc="http://creativecommons.org/ns#"
   xmlns:rdf="http://www.w3.org/1999/02/22-rdf-syntax-ns#"
   xmlns:svg="http://www.w3.org/2000/svg"
   xmlns="http://www.w3.org/2000/svg"
   xmlns:sodipodi="http://sodipodi.sourceforge.net/DTD/sodipodi-0.dtd"
   xmlns:inkscape="http://www.inkscape.org/namespaces/inkscape"
   version="1.1"
   viewBox="0 0 62 34"
   id="svg2"
   inkscape:version="0.48.4 r9939"
   sodipodi:docname="maryland.svg">
  <metadata
     id="metadata64">
    <rdf:RDF>
      <cc:Work
         rdf:about="">
        <dc:format>image/svg+xml</dc:format>
        <dc:type
           rdf:resource="http://purl.org/dc/dcmitype/StillImage" />
        <dc:title></dc:title>
      </cc:Work>
    </rdf:RDF>
  </metadata>
  <defs
     id="defs62" />
  <sodipodi:namedview
     pagecolor="#ffffff"
     bordercolor="#666666"
     borderopacity="1"
     objecttolerance="10"
     gridtolerance="10"
     guidetolerance="10"
     inkscape:pageopacity="0"
     inkscape:pageshadow="2"
     inkscape:window-width="1442"
     inkscape:window-height="990"
     id="namedview60"
     showgrid="false"
     inkscape:zoom="0.95"
     inkscape:cx="-363.22516"
     inkscape:cy="-116.60089"
     inkscape:window-x="-11"
     inkscape:window-y="-11"
     inkscape:window-maximized="1"
     inkscape:current-layer="svg2"
     fit-margin-top="0"
     fit-margin-left="0"
     fit-margin-right="0"
     fit-margin-bottom="0" />
  <style
     type="text/css"
     id="style4">
.state {
	fill:#d3d3d3;
	stroke:#fff;
	stroke-width:0.75;
	stroke-opacity:1;
}
</style>
  <path
     d="M 56.89833,31.93435 59.07025,31.24847 59.52751,29.5338 60.55631,29.64811 61.58511,31.93435 60.32769,32.39159 56.44109,32.50591 56.89833,31.93435 z M 47.52479,32.73453 49.81101,30.10536 51.41138,30.10536 53.24037,31.59141 50.83983,32.62021 48.66791,33.64901 47.52479,32.73453 z M 12.72566,10.74634 30.37253,6.10566 32.63579,5.45902 34.54987,2.66331 38.28664,1 41.17588,5.41284 38.75097,10.58598 38.42765,12.04092 40.36758,14.62749 41.4992,13.81919 43.27747,13.81919 45.54071,16.40575 49.42057,22.38719 52.9771,22.87217 55.24034,21.90221 57.01861,20.12394 56.2103,17.37572 54.10872,15.75911 52.65377,16.56741 51.68381,15.27413 52.16879,14.78915 54.27038,14.62749 56.04864,15.43579 57.98857,17.8607 58.95853,20.77059 59.28185,23.19549 55.07868,24.65044 51.19883,26.59036 47.31898,31.11686 45.37905,32.5718 45.37905,31.60184 47.80396,30.14689 48.28894,28.36863 47.48064,25.29708 44.57075,26.75202 43.76245,28.20697 44.24743,30.47021 42.1811,31.47064 39.4339,26.94351 36.03902,22.57867 33.96852,20.7662 27.43525,22.6424 22.34292,23.69319 1.66776,28.2854 1,23.51755 1.64664,12.92878 5.93591,12.03964 12.72566,10.74634 z"
     id="MA"
     class="state"
     style="fill:#ffffff;fill-opacity:1;stroke:#000000;stroke-width:2;stroke-miterlimit:4;stroke-opacity:1;stroke-dasharray:none"
     inkscape:connector-curvature="0" />
</svg>
