<?xml version="1.0" encoding="UTF-8" standalone="no"?>
<svg
   xmlns:dc="http://purl.org/dc/elements/1.1/"
   xmlns:cc="http://creativecommons.org/ns#"
   xmlns:rdf="http://www.w3.org/1999/02/22-rdf-syntax-ns#"
   xmlns:svg="http://www.w3.org/2000/svg"
   xmlns="http://www.w3.org/2000/svg"
   xmlns:sodipodi="http://sodipodi.sourceforge.net/DTD/sodipodi-0.dtd"
   xmlns:inkscape="http://www.inkscape.org/namespaces/inkscape"
   version="1.1"
   viewBox="0 0 63 108"
   id="svg2"
   inkscape:version="0.48.4 r9939"
   sodipodi:docname="minnesota.svg">
  <metadata
     id="metadata64">
    <rdf:RDF>
      <cc:Work
         rdf:about="">
        <dc:format>image/svg+xml</dc:format>
        <dc:type
           rdf:resource="http://purl.org/dc/dcmitype/StillImage" />
        <dc:title></dc:title>
      </cc:Work>
    </rdf:RDF>
  </metadata>
  <defs
     id="defs62" />
  <sodipodi:namedview
     pagecolor="#ffffff"
     bordercolor="#666666"
     borderopacity="1"
     objecttolerance="10"
     gridtolerance="10"
     guidetolerance="10"
     inkscape:pageopacity="0"
     inkscape:pageshadow="2"
     inkscape:window-width="1442"
     inkscape:window-height="990"
     id="namedview60"
     showgrid="false"
     inkscape:zoom="0.95"
     inkscape:cx="-61.49117"
     inkscape:cy="102.65877"
     inkscape:window-x="-11"
     inkscape:window-y="-11"
     inkscape:window-maximized="1"
     inkscape:current-layer="svg2"
     fit-margin-top="0"
     fit-margin-left="0"
     fit-margin-right="0"
     fit-margin-bottom="0" />
  <style
     type="text/css"
     id="style4">
.state {
	fill:#d3d3d3;
	stroke:#fff;
	stroke-width:0.75;
	stroke-opacity:1;
}
</style>
  <path
     d="M 62.54322,101.18566 62.28896,102.44181 57.11582,102.44181 55.66088,101.63351 53.55929,101.31019 46.76955,103.25011 44.99129,102.44181 42.40472,106.64498 41.30218,107.423 40.17835,104.93502 39.03523,101.04843 35.6059,97.84772 36.749,92.30317 36.06314,91.38868 34.23416,91.6173 26.31624,92.49067 1.76974,92.86404 1,90.63868 1.87337,82.26188 4.99021,76.58907 10.21728,67.44417 9.77154,65.01157 11.0084,64.35532 11.44427,62.43585 9.12679,60.35687 9.01167,58.21539 7.17595,54.0943 7.06695,48.13153 8.39448,45.65056 8.17118,42.23481 6.40169,39.15222 7.92811,37.67001 6.3575,35.17047 6.81475,33.51826 8.39215,26.99189 10.8781,24.95554 10.23643,22.58857 13.8944,17.28604 16.72626,15.92962 16.50529,14.25446 16.21716,12.57336 19.09322,7.00569 21.43894,5.77418 21.59057,4.88117 58.93405,1 59.11891,7.28333 59.28057,23.93439 58.47227,54.97324 58.31061,69.03773 61.05885,87.79037 62.54322,101.18566 z"
     id="MS"
     class="state"
     style="fill:#ffffff;fill-opacity:1;stroke:#000000;stroke-width:2;stroke-miterlimit:4;stroke-opacity:1;stroke-dasharray:none"
     inkscape:connector-curvature="0" />
</svg>
