<?xml version="1.0" encoding="UTF-8" standalone="no"?>
<svg
   xmlns:dc="http://purl.org/dc/elements/1.1/"
   xmlns:cc="http://creativecommons.org/ns#"
   xmlns:rdf="http://www.w3.org/1999/02/22-rdf-syntax-ns#"
   xmlns:svg="http://www.w3.org/2000/svg"
   xmlns="http://www.w3.org/2000/svg"
   xmlns:sodipodi="http://sodipodi.sourceforge.net/DTD/sodipodi-0.dtd"
   xmlns:inkscape="http://www.inkscape.org/namespaces/inkscape"
   version="1.1"
   viewBox="0 0 144 72"
   id="svg2"
   inkscape:version="0.48.4 r9939"
   sodipodi:docname="montana.svg">
  <metadata
     id="metadata64">
    <rdf:RDF>
      <cc:Work
         rdf:about="">
        <dc:format>image/svg+xml</dc:format>
        <dc:type
           rdf:resource="http://purl.org/dc/dcmitype/StillImage" />
        <dc:title></dc:title>
      </cc:Work>
    </rdf:RDF>
  </metadata>
  <defs
     id="defs62" />
  <sodipodi:namedview
     pagecolor="#ffffff"
     bordercolor="#666666"
     borderopacity="1"
     objecttolerance="10"
     gridtolerance="10"
     guidetolerance="10"
     inkscape:pageopacity="0"
     inkscape:pageshadow="2"
     inkscape:window-width="1442"
     inkscape:window-height="990"
     id="namedview60"
     showgrid="false"
     inkscape:zoom="0.95"
     inkscape:cx="15.840511"
     inkscape:cy="-169.82653"
     inkscape:window-x="-11"
     inkscape:window-y="-11"
     inkscape:window-maximized="1"
     inkscape:current-layer="svg2"
     fit-margin-top="0"
     fit-margin-left="0"
     fit-margin-right="0"
     fit-margin-bottom="0" />
  <style
     type="text/css"
     id="style4">
.state {
	fill:#d3d3d3;
	stroke:#fff;
	stroke-width:0.75;
	stroke-opacity:1;
}
</style>
  <path
     d="M 134.5361,53.90216 137.76671,60.92207 137.63808,63.22459 141.0973,68.71847 143.81659,71.87081 138.76711,71.87081 95.28455,70.93213 54.49769,70.04183 32.24547,69.25796 33.31824,47.93011 1,45.00986 5.34383,1 20.89016,2.02881 41.00895,3.17191 58.84152,4.31503 82.61828,5.45814 93.36354,5.0009 95.42114,7.28712 100.22222,10.25922 101.36533,11.17371 105.70916,9.80197 109.59575,9.34473 112.33922,9.1161 114.1682,10.48784 118.22563,12.0882 121.19772,13.68856 121.65497,15.28892 122.56946,17.34652 124.39844,17.34652 125.19642,17.39272 126.09065,22.07454 129.01091,30.54246 129.58344,34.29917 132.10693,38.07342 132.67652,43.18756 134.28376,47.42793 134.5361,53.90219 z"
     id="NE"
     class="state"
     style="fill:#ffffff;fill-opacity:1;stroke:#000000;stroke-width:2;stroke-miterlimit:4;stroke-opacity:1;stroke-dasharray:none"
     inkscape:connector-curvature="0" />
</svg>
