<?xml version="1.0" encoding="UTF-8" standalone="no"?>
<svg
   xmlns:dc="http://purl.org/dc/elements/1.1/"
   xmlns:cc="http://creativecommons.org/ns#"
   xmlns:rdf="http://www.w3.org/1999/02/22-rdf-syntax-ns#"
   xmlns:svg="http://www.w3.org/2000/svg"
   xmlns="http://www.w3.org/2000/svg"
   xmlns:sodipodi="http://sodipodi.sourceforge.net/DTD/sodipodi-0.dtd"
   xmlns:inkscape="http://www.inkscape.org/namespaces/inkscape"
   version="1.1"
   viewBox="0 0 78 84"
   id="svg2"
   inkscape:version="0.48.4 r9939"
   sodipodi:docname="north_dakota.svg">
  <metadata
     id="metadata64">
    <rdf:RDF>
      <cc:Work
         rdf:about="">
        <dc:format>image/svg+xml</dc:format>
        <dc:type
           rdf:resource="http://purl.org/dc/dcmitype/StillImage" />
        <dc:title></dc:title>
      </cc:Work>
    </rdf:RDF>
  </metadata>
  <defs
     id="defs62" />
  <sodipodi:namedview
     pagecolor="#ffffff"
     bordercolor="#666666"
     borderopacity="1"
     objecttolerance="10"
     gridtolerance="10"
     guidetolerance="10"
     inkscape:pageopacity="0"
     inkscape:pageshadow="2"
     inkscape:window-width="1442"
     inkscape:window-height="990"
     id="namedview60"
     showgrid="false"
     inkscape:zoom="0.95"
     inkscape:cx="-183.85436"
     inkscape:cy="18.838027"
     inkscape:window-x="-11"
     inkscape:window-y="-11"
     inkscape:window-maximized="1"
     inkscape:current-layer="svg2"
     fit-margin-top="0"
     fit-margin-left="0"
     fit-margin-right="0"
     fit-margin-bottom="0" />
  <style
     type="text/css"
     id="style4">
.state {
	fill:#d3d3d3;
	stroke:#fff;
	stroke-width:0.75;
	stroke-opacity:1;
}
</style>
  <path
     d="M 71.97061,1 65.87707,5.05335 61.99722,7.3166 58.60235,11.03479 54.56084,14.91464 51.32763,15.72294 48.41774,16.20792 42.92128,18.79449 40.8197,18.95615 37.42483,15.8846 32.25169,16.53125 29.66513,15.0763 27.28406,13.72547 22.39149,14.42888 12.20687,16.04549 1,18.23022 2.29329,32.8605 4.07156,46.60167 6.65812,70.04247 7.22394,74.87364 11.34629,74.74462 13.7712,73.93631 17.135,75.43945 19.20549,79.80428 24.34443,79.78718 26.23617,81.90588 27.99734,81.84058 30.53573,80.49912 33.0399,80.87062 38.46118,81.3533 40.18815,79.22062 42.5338,77.92734 44.60429,77.24649 45.25093,79.99473 47.02921,80.96469 50.5049,83.30876 52.68732,83.22796 54.02044,82.73548 54.20515,79.97395 55.79051,78.51899 55.88971,73.72627 C 55.88971,73.72627 56.91367,69.61721 56.91367,69.61721 L 58.21294,69.01593 59.53429,70.16367 60.07244,71.86069 61.79157,70.82327 62.23055,69.36252 61.11386,67.45946 61.18016,65.14503 61.92916,64.07272 64.08192,60.76624 65.13214,59.2229 67.23373,59.70788 69.49698,58.09127 72.56853,54.6964 75.34002,50.61767 75.66035,45.56216 76.14533,40.55067 75.96855,35.24379 75.01371,32.34901 75.36495,31.15923 77.16934,29.40912 74.88055,20.36179 71.97066,1.00002 z"
     id="OH"
     class="state"
     style="fill:#ffffff;fill-opacity:1;stroke:#000000;stroke-width:2;stroke-miterlimit:4;stroke-opacity:1;stroke-dasharray:none"
     inkscape:connector-curvature="0" />
</svg>
