<?xml version="1.0" encoding="UTF-8" standalone="no"?>
<svg
   xmlns:dc="http://purl.org/dc/elements/1.1/"
   xmlns:cc="http://creativecommons.org/ns#"
   xmlns:rdf="http://www.w3.org/1999/02/22-rdf-syntax-ns#"
   xmlns:svg="http://www.w3.org/2000/svg"
   xmlns="http://www.w3.org/2000/svg"
   xmlns:sodipodi="http://sodipodi.sourceforge.net/DTD/sodipodi-0.dtd"
   xmlns:inkscape="http://www.inkscape.org/namespaces/inkscape"
   version="1.1"
   viewBox="0 0 140 117"
   id="svg2"
   inkscape:version="0.48.4 r9939"
   sodipodi:docname="oklahoma.svg">
  <metadata
     id="metadata64">
    <rdf:RDF>
      <cc:Work
         rdf:about="">
        <dc:format>image/svg+xml</dc:format>
        <dc:type
           rdf:resource="http://purl.org/dc/dcmitype/StillImage" />
        <dc:title></dc:title>
      </cc:Work>
    </rdf:RDF>
  </metadata>
  <defs
     id="defs62" />
  <sodipodi:namedview
     pagecolor="#ffffff"
     bordercolor="#666666"
     borderopacity="1"
     objecttolerance="10"
     gridtolerance="10"
     guidetolerance="10"
     inkscape:pageopacity="0"
     inkscape:pageshadow="2"
     inkscape:window-width="1442"
     inkscape:window-height="990"
     id="namedview60"
     showgrid="false"
     inkscape:zoom="0.67175144"
     inkscape:cx="132.87942"
     inkscape:cy="-173.82337"
     inkscape:window-x="-11"
     inkscape:window-y="-11"
     inkscape:window-maximized="1"
     inkscape:current-layer="svg2"
     fit-margin-top="0"
     fit-margin-left="0"
     fit-margin-right="0"
     fit-margin-bottom="0" />
  <style
     type="text/css"
     id="style4">
.state {
	fill:#d3d3d3;
	stroke:#fff;
	stroke-width:0.75;
	stroke-opacity:1;
}
</style>
  <path
     d="M 113.96444,116.14749 122.81414,81.345984 123.86493,77.116464 126.2193,71.493234 125.60379,70.330354 123.08893,70.284154 121.80733,68.613454 122.26457,67.149384 122.76798,63.902504 127.22613,58.415554 129.05511,57.316404 130.19822,56.173294 131.68426,52.607664 135.73132,46.938264 139.29695,43.075864 139.52557,39.62455 136.25671,37.155868 134.4733,32.513243 121.80953,28.901273 106.72044,25.357623 91.288417,25.471929 90.831177,24.1002 85.344227,26.157804 80.886087,25.586245 78.485547,23.985884 77.228127,24.671759 72.541367,24.443127 70.826697,23.071398 65.568377,21.013794 64.768195,21.12811 60.424365,19.642054 58.481074,21.471037 52.308262,21.12811 46.364079,17.012901 47.049944,16.212721 47.278565,8.439548 44.99234,4.552971 40.877132,3.981412 40.191267,1.466565 37.837335,1 32.03881,3.058784 29.775563,9.525202 26.542354,19.548151 23.309144,26.01457 18.29767,40.079031 11.831251,53.658504 3.748228,66.268024 1.808302,69.177914 1,77.745914 1.386095,89.826144 113.96444,116.14747 z"
     id="OR"
     class="state"
     style="fill:#ffffff;fill-opacity:1;stroke:#000000;stroke-width:2;stroke-miterlimit:4;stroke-opacity:1;stroke-dasharray:none"
     inkscape:connector-curvature="0" />
</svg>
