<?xml version="1.0" encoding="UTF-8" standalone="no"?>
<svg
   xmlns:dc="http://purl.org/dc/elements/1.1/"
   xmlns:cc="http://creativecommons.org/ns#"
   xmlns:rdf="http://www.w3.org/1999/02/22-rdf-syntax-ns#"
   xmlns:svg="http://www.w3.org/2000/svg"
   xmlns="http://www.w3.org/2000/svg"
   xmlns:sodipodi="http://sodipodi.sourceforge.net/DTD/sodipodi-0.dtd"
   xmlns:inkscape="http://www.inkscape.org/namespaces/inkscape"
   version="1.1"
   viewBox="0 0 101 66"
   id="svg2"
   inkscape:version="0.48.4 r9939"
   sodipodi:docname="oregon.svg">
  <metadata
     id="metadata64">
    <rdf:RDF>
      <cc:Work
         rdf:about="">
        <dc:format>image/svg+xml</dc:format>
        <dc:type
           rdf:resource="http://purl.org/dc/dcmitype/StillImage" />
        <dc:title></dc:title>
      </cc:Work>
    </rdf:RDF>
  </metadata>
  <defs
     id="defs62" />
  <sodipodi:namedview
     pagecolor="#ffffff"
     bordercolor="#666666"
     borderopacity="1"
     objecttolerance="10"
     gridtolerance="10"
     guidetolerance="10"
     inkscape:pageopacity="0"
     inkscape:pageshadow="2"
     inkscape:window-width="1442"
     inkscape:window-height="990"
     id="namedview60"
     showgrid="false"
     inkscape:zoom="0.67175144"
     inkscape:cx="-119.38804"
     inkscape:cy="-286.16097"
     inkscape:window-x="-11"
     inkscape:window-y="-11"
     inkscape:window-maximized="1"
     inkscape:current-layer="svg2"
     fit-margin-top="0"
     fit-margin-left="0"
     fit-margin-right="0"
     fit-margin-bottom="0" />
  <style
     type="text/css"
     id="style4">
.state {
	fill:#d3d3d3;
	stroke:#fff;
	stroke-width:0.75;
	stroke-opacity:1;
}
</style>
  <path
     d="M 90.75059,48.76381 92.05901,48.49281 94.38854,47.23956 95.60042,44.75649 97.21703,42.49324 100.45024,39.42168 100.45024,38.61338 98.02533,36.99678 94.46879,34.57186 93.49883,31.98529 90.75059,31.66197 90.58893,30.53034 89.78063,27.78211 92.04389,26.65049 92.20555,24.22557 90.91225,22.93228 91.07391,21.31567 93.01385,18.24412 93.01385,15.17256 95.71148,12.52668 94.7912,11.8517 92.26712,11.65879 89.97263,9.71887 88.42271,3.60281 84.91813,3.70333 82.4629,1 64.37191,5.19777 21.37013,13.92746 12.47878,15.3824 11.85811,8.86101 6.49558,13.92866 5.20229,14.41364 1,17.42253 3.91076,36.55998 6.39242,46.28934 9.96422,65.55083 13.23353,64.91315 25.17711,63.41068 63.10374,55.74548 77.97995,52.92216 86.2803,51.2998 86.54741,51.06127 88.64901,49.44465 90.75059,48.76381 z"
     id="PA"
     class="state"
     style="fill:#ffffff;fill-opacity:1;stroke:#000000;stroke-width:2;stroke-miterlimit:4;stroke-opacity:1;stroke-dasharray:none"
     inkscape:connector-curvature="0" />
</svg>
