<?xml version="1.0" encoding="UTF-8" standalone="no"?>
<svg
   xmlns:dc="http://purl.org/dc/elements/1.1/"
   xmlns:cc="http://creativecommons.org/ns#"
   xmlns:rdf="http://www.w3.org/1999/02/22-rdf-syntax-ns#"
   xmlns:svg="http://www.w3.org/2000/svg"
   xmlns="http://www.w3.org/2000/svg"
   xmlns:sodipodi="http://sodipodi.sourceforge.net/DTD/sodipodi-0.dtd"
   xmlns:inkscape="http://www.inkscape.org/namespaces/inkscape"
   version="1.1"
   viewBox="0 0 90 68"
   id="svg2"
   inkscape:version="0.48.4 r9939"
   sodipodi:docname="rhode_island.svg">
  <metadata
     id="metadata64">
    <rdf:RDF>
      <cc:Work
         rdf:about="">
        <dc:format>image/svg+xml</dc:format>
        <dc:type
           rdf:resource="http://purl.org/dc/dcmitype/StillImage" />
        <dc:title></dc:title>
      </cc:Work>
    </rdf:RDF>
  </metadata>
  <defs
     id="defs62" />
  <sodipodi:namedview
     pagecolor="#ffffff"
     bordercolor="#666666"
     borderopacity="1"
     objecttolerance="10"
     gridtolerance="10"
     guidetolerance="10"
     inkscape:pageopacity="0"
     inkscape:pageshadow="2"
     inkscape:window-width="1442"
     inkscape:window-height="990"
     id="namedview60"
     showgrid="false"
     inkscape:zoom="0.475"
     inkscape:cx="-282.44891"
     inkscape:cy="55.277445"
     inkscape:window-x="-11"
     inkscape:window-y="-11"
     inkscape:window-maximized="1"
     inkscape:current-layer="svg2"
     fit-margin-top="0"
     fit-margin-left="0"
     fit-margin-right="0"
     fit-margin-bottom="0" />
  <style
     type="text/css"
     id="style4">
.state {
	fill:#d3d3d3;
	stroke:#fff;
	stroke-width:0.75;
	stroke-opacity:1;
}
</style>
  <path
     d="M 54.18516,66.89554 52.4081,67.86504 49.82153,66.57175 49.17489,64.47016 47.88161,60.91363 45.61835,58.81203 43.03178,58.16539 41.41518,53.31558 38.66694,47.33413 34.46377,45.39419 32.36217,43.45427 31.06889,40.8677 28.9673,38.92776 26.70405,37.63448 24.4408,34.72459 21.36925,32.46135 16.84274,30.68307 16.35776,29.22813 13.93286,26.31824 13.44787,24.86328 10.05299,19.69015 6.65812,19.85181 2.6166,17.42689 1.32332,16.13361 1,14.35534 1.8083,12.41542 4.07155,11.44544 3.56073,9.15636 9.32883,6.81979 18.44433,2.23079 26.21906,1.42248 42.33346,1 44.97171,2.87743 46.65081,6.23565 50.95316,5.62567 63.56269,4.17071 66.47258,4.97902 79.08212,12.57708 89.1902,20.69876 83.76903,26.1571 81.18246,32.3002 80.69748,38.60496 79.08088,39.41326 77.94925,42.16149 75.52435,42.80813 73.42276,46.36466 70.67453,49.11289 68.41129,52.50776 66.79468,53.31606 63.23815,56.71093 60.32826,56.87259 61.29823,60.1058 56.28675,65.60226 54.18516,66.89554 z"
     id="SC"
     class="state"
     style="fill:#ffffff;fill-opacity:1;stroke:#000000;stroke-width:2;stroke-miterlimit:4;stroke-opacity:1;stroke-dasharray:none"
     inkscape:connector-curvature="0" />
</svg>
