<?xml version="1.0" encoding="UTF-8" standalone="no"?>
<svg
   xmlns:dc="http://purl.org/dc/elements/1.1/"
   xmlns:cc="http://creativecommons.org/ns#"
   xmlns:rdf="http://www.w3.org/1999/02/22-rdf-syntax-ns#"
   xmlns:svg="http://www.w3.org/2000/svg"
   xmlns="http://www.w3.org/2000/svg"
   xmlns:sodipodi="http://sodipodi.sourceforge.net/DTD/sodipodi-0.dtd"
   xmlns:inkscape="http://www.inkscape.org/namespaces/inkscape"
   version="1.1"
   viewBox="0 0 245 236"
   id="svg2"
   inkscape:version="0.48.4 r9939"
   sodipodi:docname="tennessee.svg">
  <metadata
     id="metadata64">
    <rdf:RDF>
      <cc:Work
         rdf:about="">
        <dc:format>image/svg+xml</dc:format>
        <dc:type
           rdf:resource="http://purl.org/dc/dcmitype/StillImage" />
        <dc:title></dc:title>
      </cc:Work>
    </rdf:RDF>
  </metadata>
  <defs
     id="defs62" />
  <sodipodi:namedview
     pagecolor="#ffffff"
     bordercolor="#666666"
     borderopacity="1"
     objecttolerance="10"
     gridtolerance="10"
     guidetolerance="10"
     inkscape:pageopacity="0"
     inkscape:pageshadow="2"
     inkscape:window-width="1442"
     inkscape:window-height="990"
     id="namedview60"
     showgrid="false"
     inkscape:zoom="0.95"
     inkscape:cx="193.0001"
     inkscape:cy="253.84396"
     inkscape:window-x="-11"
     inkscape:window-y="-11"
     inkscape:window-maximized="1"
     inkscape:current-layer="svg2"
     fit-margin-top="0"
     fit-margin-left="0"
     fit-margin-right="0"
     fit-margin-bottom="0" />
  <style
     type="text/css"
     id="style4">
.state {
	fill:#d3d3d3;
	stroke:#fff;
	stroke-width:0.75;
	stroke-opacity:1;
}
</style>
  <path
     d="M 74.96433,1.05718 97.65512,2.14312 128.74781,3.28624 126.4132,26.74204 126.11644,44.89556 126.18454,46.97735 130.52837,50.79578 132.51502,52.24294 133.69923,51.68325 134.0726,49.86553 135.21292,51.66915 137.32456,51.71305 137.32156,50.26596 138.9915,51.23323 140.1302,51.6421 139.77093,55.60975 143.85912,55.70325 146.78444,56.90042 150.73918,57.4258 153.12056,59.50478 155.24466,57.42861 158.9696,58.04352 161.19051,61.26846 162.26547,61.58942 162.105,63.55469 164.31861,64.34698 166.64876,62.29218 168.78178,62.9071 171.01116,62.9426 171.94423,65.37804 178.27232,67.49249 179.86537,66.72556 181.35484,62.54785 181.69556,62.54785 182.60205,62.62945 183.8311,64.69808 187.76098,65.36336 191.09798,66.48624 194.52361,67.68221 196.36419,66.70721 197.07795,64.19237 201.53117,64.23657 203.33991,65.16735 206.13916,63.06084 207.2428,63.10504 208.09384,64.71011 212.14856,64.71011 213.66743,62.68149 215.5348,63.08873 217.48083,65.49201 221.0014,67.53616 223.86016,68.34597 225.37378,69.14581 227.82048,71.14313 230.86352,69.81534 233.55461,70.95422 234.11842,77.06016 234.07862,86.76233 234.76448,96.29634 235.46666,99.90145 238.14199,104.32131 239.04017,109.27204 243.25612,114.81006 243.45214,117.955 244.19851,118.74084 243.46844,127.12091 240.59634,132.12741 242.12931,134.28028 241.49923,136.61836 240.82966,144.02268 239.32534,147.36068 239.62022,150.86303 233.95534,152.44821 224.09405,156.97471 223.12409,158.91463 220.53752,160.85456 218.43594,162.3095 217.14265,163.1178 211.48454,168.4526 208.73631,170.55419 203.40151,173.78739 197.7434,176.2123 191.43864,179.60717 189.66038,181.06212 183.8406,184.61865 180.44573,185.26529 176.56588,190.76174 172.52437,191.08507 171.5544,193.02499 173.81765,194.96492 172.3627,200.46137 171.06942,204.98787 169.9378,208.86772 169.1295,213.39421 169.9378,215.81912 171.71606,222.77052 172.68603,228.91361 174.46429,231.66184 173.49433,233.11679 170.42278,235.05671 164.76466,231.17686 159.26821,230.04524 157.97492,230.53022 154.74171,229.88358 150.53854,226.81203 145.36541,225.68041 137.76736,222.28554 135.66578,218.40568 134.37249,211.93927 131.13929,209.99934 130.49264,207.73609 131.13929,207.08945 131.46261,203.69458 130.16932,203.04794 129.52268,202.07798 130.81596,197.71314 129.19936,195.4499 125.96615,194.15661 122.57128,189.79178 119.01475,183.1637 114.81158,180.57713 114.97324,178.63721 109.63844,166.35101 108.83014,162.14784 107.05188,160.20792 106.89022,158.75297 100.90878,153.41818 98.32221,150.34663 98.32221,149.215 95.73564,147.11342 88.9459,145.98179 81.50952,145.33515 78.43797,143.07191 73.91148,144.85017 70.35495,146.30512 68.0917,149.53832 67.12174,153.25652 62.75691,159.39961 60.332,161.82452 57.74543,160.85456 55.96717,159.72293 54.02724,159.07629 50.14739,156.81305 50.14739,156.1664 48.36913,154.22648 43.19599,152.12489 35.75961,144.36519 33.49636,139.67704 33.49636,131.59401 30.26315,125.12759 29.77817,122.37937 28.16157,121.4094 27.02994,119.30782 22.01847,117.20623 20.72519,115.58963 13.61212,107.66826 12.31884,104.43505 7.63068,102.1718 6.17573,97.80693 3.58914,94.89706 1.64923,94.4121 1,89.73446 9.00187,90.42035 38.03686,93.1638 67.07194,94.76416 69.30547,75.30234 73.19202,19.74732 74.79241,1 76.16415,1.0286 M 175.1935,230.69134 174.62769,223.57826 171.87945,216.38434 171.31363,209.35209 172.84941,201.10738 176.16347,194.23679 179.63917,188.82114 182.79157,185.26459 183.43821,185.50709 178.66921,192.13519 174.30437,198.68247 172.2836,205.31056 171.96028,210.48372 172.84941,216.62684 175.43599,223.82076 175.92097,228.9939 176.08263,230.44886 175.1935,230.69134 z"
     id="TX"
     class="state"
     style="fill:#ffffff;fill-opacity:1;stroke:#000000;stroke-width:2;stroke-miterlimit:4;stroke-opacity:1;stroke-dasharray:none"
     inkscape:connector-curvature="0" />
</svg>
