<?xml version="1.0" encoding="UTF-8" standalone="no"?>
<svg
   xmlns:dc="http://purl.org/dc/elements/1.1/"
   xmlns:cc="http://creativecommons.org/ns#"
   xmlns:rdf="http://www.w3.org/1999/02/22-rdf-syntax-ns#"
   xmlns:svg="http://www.w3.org/2000/svg"
   xmlns="http://www.w3.org/2000/svg"
   xmlns:sodipodi="http://sodipodi.sourceforge.net/DTD/sodipodi-0.dtd"
   xmlns:inkscape="http://www.inkscape.org/namespaces/inkscape"
   version="1.1"
   viewBox="0 0 136 76"
   id="svg2"
   inkscape:version="0.48.4 r9939"
   sodipodi:docname="vermond.svg">
  <metadata
     id="metadata64">
    <rdf:RDF>
      <cc:Work
         rdf:about="">
        <dc:format>image/svg+xml</dc:format>
        <dc:type
           rdf:resource="http://purl.org/dc/dcmitype/StillImage" />
        <dc:title></dc:title>
      </cc:Work>
    </rdf:RDF>
  </metadata>
  <defs
     id="defs62" />
  <sodipodi:namedview
     pagecolor="#ffffff"
     bordercolor="#666666"
     borderopacity="1"
     objecttolerance="10"
     gridtolerance="10"
     guidetolerance="10"
     inkscape:pageopacity="0"
     inkscape:pageshadow="2"
     inkscape:window-width="1442"
     inkscape:window-height="990"
     id="namedview60"
     showgrid="false"
     inkscape:zoom="0.95"
     inkscape:cx="-219.47506"
     inkscape:cy="58.595918"
     inkscape:window-x="-11"
     inkscape:window-y="-11"
     inkscape:window-maximized="1"
     inkscape:current-layer="svg2"
     fit-margin-top="0"
     fit-margin-left="0"
     fit-margin-right="0"
     fit-margin-bottom="0" />
  <style
     type="text/css"
     id="style4">
.state {
	fill:#d3d3d3;
	stroke:#fff;
	stroke-width:0.75;
	stroke-opacity:1;
}
</style>
  <path
     d="M 129.16074,25.06936 129.01683,23.12233 135.47026,20.57245 134.69985,23.79029 131.7799,27.5694 131.36181,32.15522 131.82356,35.54566 129.99559,40.52382 127.83132,42.43996 126.36098,37.79915 126.80687,32.35004 128.39387,28.16697 129.16074,25.06936 z M 132.50093,53.37072 74.32675,65.94615 36.89978,71.22522 30.22145,70.85004 27.6362,72.77642 20.29707,72.99711 11.91496,73.97478 1,75.5894 11.46943,69.9782 11.45633,67.90327 12.97638,65.75714 23.53016,54.25571 27.47688,58.73317 31.25989,59.69715 33.80335,58.55683 36.04057,57.24567 38.57718,58.58919 42.49135,57.16143 44.36808,52.60509 46.969,53.14511 49.82424,51.01386 51.62351,51.50746 54.45072,47.83089 54.79897,45.74778 53.83531,44.47221 54.83808,42.60558 60.11235,30.32843 60.72912,24.59335 61.95801,24.06981 64.13654,26.51268 68.0724,26.21151 70.00161,18.63788 72.7956,18.07702 73.84535,15.33595 76.42517,12.98907 79.197,7.29388 79.2819,2.22633 89.10341,6.04915 C 89.78426,6.38957 89.93629,1 89.93629,1 L 93.58885,2.59833 93.65715,5.53649 99.4414,6.83598 101.57435,8.01218 103.23427,10.06787 102.57972,13.71654 100.63228,16.30752 100.74213,18.36659 101.33109,20.2195 106.30984,21.48793 110.76111,21.52783 113.82994,22.48647 115.77345,22.79577 116.48826,25.88423 119.6787,26.28676 120.54677,27.48678 120.10728,32.17686 121.48201,33.27941 121.00306,35.2098 122.23247,35.99957 122.01067,37.38417 119.31668,37.28927 119.40568,38.90479 121.68667,40.44766 121.80821,41.85956 123.58132,43.64494 124.07311,46.16907 121.52007,47.55038 123.09229,49.04468 128.89331,47.35885 132.50093,53.37078 z"
     id="VA"
     class="state"
     style="fill:#ffffff;fill-opacity:1;stroke:#000000;stroke-width:2;stroke-miterlimit:4;stroke-opacity:1;stroke-dasharray:none"
     inkscape:connector-curvature="0" />
</svg>
