<?xml version="1.0" encoding="UTF-8" standalone="no"?>
<svg
   xmlns:dc="http://purl.org/dc/elements/1.1/"
   xmlns:cc="http://creativecommons.org/ns#"
   xmlns:rdf="http://www.w3.org/1999/02/22-rdf-syntax-ns#"
   xmlns:svg="http://www.w3.org/2000/svg"
   xmlns="http://www.w3.org/2000/svg"
   xmlns:sodipodi="http://sodipodi.sourceforge.net/DTD/sodipodi-0.dtd"
   xmlns:inkscape="http://www.inkscape.org/namespaces/inkscape"
   version="1.1"
   viewBox="0 0 118 86"
   id="svg2"
   inkscape:version="0.48.4 r9939"
   sodipodi:docname="virginia.svg">
  <metadata
     id="metadata64">
    <rdf:RDF>
      <cc:Work
         rdf:about="">
        <dc:format>image/svg+xml</dc:format>
        <dc:type
           rdf:resource="http://purl.org/dc/dcmitype/StillImage" />
        <dc:title></dc:title>
      </cc:Work>
    </rdf:RDF>
  </metadata>
  <defs
     id="defs62" />
  <sodipodi:namedview
     pagecolor="#ffffff"
     bordercolor="#666666"
     borderopacity="1"
     objecttolerance="10"
     gridtolerance="10"
     guidetolerance="10"
     inkscape:pageopacity="0"
     inkscape:pageshadow="2"
     inkscape:window-width="1442"
     inkscape:window-height="990"
     id="namedview60"
     showgrid="false"
     inkscape:zoom="0.95"
     inkscape:cx="-285.30631"
     inkscape:cy="-231.01368"
     inkscape:window-x="-11"
     inkscape:window-y="-11"
     inkscape:window-maximized="1"
     inkscape:current-layer="svg2"
     fit-margin-top="0"
     fit-margin-left="0"
     fit-margin-right="0"
     fit-margin-bottom="0" />
  <style
     type="text/css"
     id="style4">
.state {
	fill:#d3d3d3;
	stroke:#fff;
	stroke-width:0.75;
	stroke-opacity:1;
}
</style>
  <path
     d="M 36.241989,1 40.606819,2.4549443 50.306449,5.2031726 58.874449,7.1430976 78.920349,12.801215 101.87614,18.459331 117.09926,21.666504 103.4669,85.252315 91.021899,81.726997 75.513889,78.156318 60.284599,78.189558 59.829029,76.844859 54.229809,79.024152 49.634379,78.287408 47.487409,76.703354 46.174199,77.36133 41.438539,77.221087 39.740179,75.871454 34.477139,73.759151 33.742168,73.906069 29.353046,72.381621 27.459748,74.199 21.193842,73.900267 15.268144,69.774565 16.047101,68.841802 16.168324,61.16435 13.886325,57.324649 9.771117,56.717609 9.093707,54.206993 6.818195,53.750061 3.263247,54.980637 1,51.76139 1.323321,48.851501 4.071549,48.52818 5.688154,44.486669 3.101586,43.355045 3.263247,39.636854 7.62808,38.990213 4.879852,36.241985 3.424907,29.128924 4.071549,26.219036 4.071549,18.297673 2.293284,15.064463 4.556531,5.6881556 6.658117,6.1731366 9.083024,9.0830256 11.831252,11.669593 15.064461,13.609519 19.590954,15.711105 22.662505,16.357747 25.572394,17.812691 28.967267,18.782654 31.230513,18.620994 31.230513,16.196086 32.523797,15.064463 34.625379,13.771179 34.948709,14.902803 35.272029,16.681068 33.008778,17.166049 32.685457,19.267635 34.463719,20.72258 35.595349,23.147487 36.241989,25.087412 37.696929,24.925752 37.858589,23.632468 36.888629,22.339184 36.403649,19.105975 37.211949,17.32771 36.565309,15.872766 36.565309,13.609519 38.343579,10.052989 37.211949,7.4664206 34.787039,2.6166067 35.110369,1.8083044 36.241989,1.000002 z M 26.785297,6.9789646 28.806061,6.8173046 29.291043,8.1914236 30.826822,6.5748086 33.170904,6.5748086 33.979207,8.1105876 32.443427,9.8080276 33.090079,10.616341 32.362602,12.637102 30.988483,13.041248 C 30.988483,13.041248 30.099345,13.122088 30.099345,12.798763 30.099345,12.475442 31.5543,10.212185 31.5543,10.212185 L 29.85686,9.6463676 29.533539,11.101322 28.806061,11.747964 27.270279,9.4847066 26.785297,6.9789646 z"
     id="WA"
     class="state"
     style="fill:#ffffff;fill-opacity:1;stroke:#000000;stroke-width:2;stroke-miterlimit:4;stroke-opacity:1;stroke-dasharray:none"
     inkscape:connector-curvature="0" />
</svg>
