<?xml version="1.0" encoding="UTF-8" standalone="no"?>
<svg
   xmlns:dc="http://purl.org/dc/elements/1.1/"
   xmlns:cc="http://creativecommons.org/ns#"
   xmlns:rdf="http://www.w3.org/1999/02/22-rdf-syntax-ns#"
   xmlns:svg="http://www.w3.org/2000/svg"
   xmlns="http://www.w3.org/2000/svg"
   xmlns:sodipodi="http://sodipodi.sourceforge.net/DTD/sodipodi-0.dtd"
   xmlns:inkscape="http://www.inkscape.org/namespaces/inkscape"
   version="1.1"
   viewBox="0 0 81 80"
   id="svg2"
   inkscape:version="0.48.4 r9939"
   sodipodi:docname="washington.svg">
  <metadata
     id="metadata64">
    <rdf:RDF>
      <cc:Work
         rdf:about="">
        <dc:format>image/svg+xml</dc:format>
        <dc:type
           rdf:resource="http://purl.org/dc/dcmitype/StillImage" />
        <dc:title></dc:title>
      </cc:Work>
    </rdf:RDF>
  </metadata>
  <defs
     id="defs62" />
  <sodipodi:namedview
     pagecolor="#ffffff"
     bordercolor="#666666"
     borderopacity="1"
     objecttolerance="10"
     gridtolerance="10"
     guidetolerance="10"
     inkscape:pageopacity="0"
     inkscape:pageshadow="2"
     inkscape:window-width="1442"
     inkscape:window-height="990"
     id="namedview60"
     showgrid="false"
     inkscape:zoom="0.95"
     inkscape:cx="-236.24629"
     inkscape:cy="-17.07327"
     inkscape:window-x="-11"
     inkscape:window-y="-11"
     inkscape:window-maximized="1"
     inkscape:current-layer="svg2"
     fit-margin-top="0"
     fit-margin-left="0"
     fit-margin-right="0"
     fit-margin-bottom="0" />
  <style
     type="text/css"
     id="style4">
.state {
	fill:#d3d3d3;
	stroke:#fff;
	stroke-width:0.75;
	stroke-opacity:1;
}
</style>
  <path
     d="M 48.94227,18.27629 50.05428,23.22082 51.13772,29.25215 53.26801,26.67181 55.53125,23.60025 58.06963,22.9847 59.52458,21.52976 61.30285,18.94319 62.74783,19.58983 65.65772,19.26651 68.2443,17.16492 70.25119,15.71166 72.09642,15.22667 73.40034,16.24314 77.04359,18.06477 78.98352,19.84304 80.35764,21.13632 79.59592,26.69126 73.76101,24.15004 69.51576,22.52802 69.41462,27.70645 66.66698,33.24318 64.13695,35.66984 62.94486,38.41923 60.30128,38.91933 59.40344,42.52121 58.36021,46.47088 54.39197,46.81162 52.06824,44.37274 50.99709,44.93215 50.36441,50.40185 49.01412,53.93635 44.05572,64.89132 44.95241,66.05202 44.74655,67.96056 41.93786,71.84503 40.12936,71.30074 37.16131,73.46048 34.61893,72.88827 32.6197,77.44384 C 32.6197,77.44384 29.36039,78.87406 28.69679,78.81156 28.53628,78.79646 26.22769,77.56246 26.22769,77.56246 L 23.89117,78.94183 21.48137,79.98623 17.73668,79.09711 16.61528,77.92883 14.42306,74.90547 11.28047,72.91735 9.5689,69.29411 5.28402,65.82592 4.63737,63.56267 2.0508,62.10772 1.24249,60.49112 1,55.23714 3.18242,55.15634 5.12236,54.34804 5.28402,51.59981 6.90062,50.14486 7.06228,45.13338 8.03224,41.25352 9.32553,40.60688 10.61881,41.7385 11.1038,43.51677 12.88207,42.5468 13.36705,40.9302 12.23543,39.15193 12.23543,36.72702 13.20539,35.43373 15.46864,32.03886 16.76192,30.58392 18.86352,31.0689 21.12676,29.45228 24.19831,26.05741 26.46157,22.17755 26.78489,16.51944 27.26987,11.50795 27.26987,6.81979 26.13825,3.74824 27.10821,2.29328 28.39169,1 31.88294,20.82712 36.51395,20.07597 48.94227,18.27632 z"
     id="WV"
     class="state"
     style="fill:#ffffff;fill-opacity:1;stroke:#000000;stroke-width:2;stroke-miterlimit:4;stroke-opacity:1;stroke-dasharray:none"
     inkscape:connector-curvature="0" />
</svg>
